<?xml version="1.0" encoding="UTF-8"?>
<svg version="1.1" xmlns="http://www.w3.org/2000/svg" width="288" height="421">
    <!--<path d="M0 0 C95.04 0 190.08 0 288 0 C288 138.93 288 277.86 288 421 C192.96 421 97.92 421 0 421 C0 282.07 0 143.14 0 0 Z " fill="#FDFDFE" transform="translate(0,0)"/>-->
    <path d="M0 0 C27.72 0 55.44 0 84 0 C84 10.23 84 20.46 84 31 C86.97 31 89.94 31 93 31 C93 20.77 93 10.54 93 0 C120.72 0 148.44 0 177 0 C177 10.23 177 20.46 177 31 C179.97 31 182.94 31 186 31 C186 20.77 186 10.54 186 0 C213.72 0 241.44 0 270 0 C270 55.44 270 110.88 270 168 C269.34 168 268.68 168 268 168 C267.79246094 167.32195312 267.58492188 166.64390625 267.37109375 165.9453125 C265.26450552 159.58147691 262.62322394 154.54213304 258.5859375 149.19140625 C257 147 257 147 255.90234375 144.7734375 C254.69969706 142.40979422 253.36414622 142.14829959 251 141 C248.25 138.5 248.25 138.5 246 136 C246 135.34 246 134.68 246 134 C250.455 133.01 250.455 133.01 255 132 C255.53356879 127.20241326 255.53356879 127.20241326 253.4375 123.125 C250.32011808 121.68620834 247.4011537 121.32703401 244 121 C243.625 118.3125 243.625 118.3125 244 115 C246.5625 112.75 246.5625 112.75 248.20703125 111.54296875 C254.20726909 106.37936538 258.50076227 99.00624502 259.28125 91.1796875 C259.68965478 84.34498826 259.68965478 84.34498826 256.8125 78.375 C253.19133613 75.31712829 250.78526975 74.23286127 246.125 73.625 C241.94089726 74.12709233 239.53638894 75.73671108 236 78 C233.525 75.03 233.525 75.03 231 72 C231.48210937 71.68546875 231.96421875 71.3709375 232.4609375 71.046875 C237.36000666 67.93207109 237.36000666 67.93207109 240 63 C240.47584595 58.71738649 240.27767535 56.52559976 238.25 52.6875 C235.66183642 49.59608239 233.82239691 48.25102784 229.81640625 47.69921875 C225.07008034 47.67454115 221.7670558 47.78692299 218 51 C215.66227486 53.90200363 215.03525341 55.72300894 214.5625 59.4375 C215.23649936 64.92578048 217.63254681 67.8190177 221.75 71.375 C222.4925 71.91125 223.235 72.4475 224 73 C222.68 74.65 221.36 76.3 220 78 C219.1646875 77.566875 219.1646875 77.566875 218.3125 77.125 C213.70889514 74.88540845 210.21528443 73.36139374 205 74 C200.67937509 76.28738966 197.76522691 78.39079639 196 83 C194.54714171 91.80520177 197.07449465 98.71622239 202 106 C204.31272115 108.45186048 206.66401782 110.69744074 209.2421875 112.8671875 C211.55213785 115.66992726 211.33217686 117.46684609 211 121 C209.741875 121.0825 208.48375 121.165 207.1875 121.25 C204.26088782 121.62361007 203.24049737 121.79594163 200.9375 123.75 C199.73858135 126.62740477 200.0002854 128.07775733 201 131 C203.5654594 133.5654594 205.47686668 133.54046087 209 134 C207.66498697 137.00866351 206.23730696 138.91659458 203.8125 141.125 C187.61184068 156.92064284 186.72719951 174.84457676 186.375 196.1875 C186.33674669 198.11264646 186.2976909 200.03777714 186.2578125 201.96289062 C186.16261798 206.6417965 186.07829995 211.32078215 186 216 C183.03 216 180.06 216 177 216 C176.99413376 214.71786118 176.98826752 213.43572235 176.98222351 212.11473083 C176.92478631 199.9784631 176.8519164 187.84237094 176.76428509 175.70628262 C176.71972925 169.46834566 176.68044106 163.23047181 176.65356445 156.99243164 C176.62738335 150.96224507 176.58687786 144.93230326 176.53681374 138.90226936 C176.52024459 136.61205168 176.50866882 134.32179176 176.50238609 132.03152275 C176.42099475 101.7772172 176.42099475 101.7772172 162 76 C149.34040845 65.17480365 133.60272034 62.04197009 117.7109375 58.96875 C116.82277344 58.79609619 115.93460937 58.62344238 115.01953125 58.44555664 C113.30243998 58.11567601 111.58373273 57.79405973 109.86328125 57.48217773 C104.87312665 56.53739542 100.59471865 55.17417652 96 53 C96.2165625 53.75023437 96.433125 54.50046875 96.65625 55.2734375 C96.9346875 56.29695313 97.213125 57.32046875 97.5 58.375 C97.7784375 59.37273437 98.056875 60.37046875 98.34375 61.3984375 C99.89265034 69.89895009 98.74142204 77.49174094 96.75 85.8125 C96.28795499 87.83017889 95.82837566 89.84842378 95.37109375 91.8671875 C95.14019043 92.88264648 94.90928711 93.89810547 94.67138672 94.94433594 C93.42812879 100.60274186 92.38604523 106.29886653 91.34472656 111.99731445 C90.64706562 115.77278002 89.89504027 119.48368953 88.89453125 123.19140625 C88.04767068 126.79703533 87.79121311 129.81337669 87.875 133.5 C87.89304687 134.5415625 87.91109375 135.583125 87.9296875 136.65625 C87.95289062 137.4296875 87.97609375 138.203125 88 139 C95.34492713 141.84870069 95.34492713 141.84870069 103 143 C107.49181573 139.74343359 109.76041101 135.2229922 112.375 130.40234375 C115.96850669 125.08982786 121.14151547 122.77887923 126.8125 120.25 C127.50537109 119.93417969 128.19824219 119.61835938 128.91210938 119.29296875 C130.60520671 118.52231755 132.30221412 117.76026638 134 117 C133.02755438 128.52163413 126.57088244 136.52835713 118 144 C115.77174528 145.80214987 113.51179719 147.55348939 111.234375 149.29296875 C102.31127486 156.11009246 96.36825392 162.6928085 94 174 C93.68718461 177.28940959 93.62916449 180.56833694 93.5859375 183.87109375 C93.56657135 184.793423 93.5472052 185.71575226 93.5272522 186.66603088 C93.4678388 189.58976211 93.42122491 192.51353353 93.375 195.4375 C93.33678498 197.4290529 93.29773123 199.4205899 93.2578125 201.41210938 C93.16216896 206.27460923 93.07799779 211.13718638 93 216 C90.03 216 87.06 216 84 216 C83.970271 214.17009521 83.970271 214.17009521 83.93994141 212.30322266 C83.8633354 207.73694718 83.77470686 203.17096774 83.68261719 198.60498047 C83.64455305 196.63629033 83.60966268 194.66753597 83.578125 192.69873047 C83.5319801 189.85360909 83.47407219 187.00892133 83.4140625 184.1640625 C83.40251129 183.29697662 83.39096008 182.42989075 83.37905884 181.53652954 C82.9357736 162.7938546 75.32265793 152.16728029 62.25 139.3125 C56.41694076 133.53034006 51.24905973 127.72837386 50.875 119.125 C50.91625 118.42375 50.9575 117.7225 51 117 C51.60328125 116.97421875 52.2065625 116.9484375 52.828125 116.921875 C56.65821171 116.65006239 59.31015729 116.45428666 62.5625 114.3125 C64.45429433 111.26917868 64.59903348 109.51932168 64 106 C61.59035866 102.96175657 58.92069764 102.74026634 55.25 102.3125 C53.83429039 102.19604647 52.41777182 102.08785338 51 102 C52.42771328 98.65885656 54.17235845 96.77168213 56.875 94.375 C62.28427586 89.07390965 65.04078887 83.08487716 65.5625 75.5 C65.2511091 69.44398396 62.54413841 63.78488808 58.47265625 59.328125 C52.27327901 53.96479609 47.43868787 53.62135081 39.421875 53.74609375 C33.10238721 54.21500552 28.574814 56.54882962 24 61 C19.23933507 66.66133126 19.15168944 72.97935882 19.48828125 80.11328125 C20.56872954 88.31973961 25.78706324 93.19464881 31.6796875 98.58984375 C33 100 33 100 33 102 C32.09507813 102.05607422 32.09507813 102.05607422 31.171875 102.11328125 C27.6377435 102.40399207 24.67523898 102.68708437 21.4375 104.1875 C19.7560962 106.0090138 19.7560962 106.0090138 19.5 108.9375 C19.8000896 112.00865407 19.8000896 112.00865407 21.4375 114.3125 C25.11078108 116.73148998 28.67816914 116.81530637 33 117 C32.63675006 128.44237318 26.94124437 134.21301658 19.0625 141.875 C10.53546869 150.16865759 4.93861175 158.72236014 1 170 C0.67 170 0.34 170 0 170 C0 113.9 0 57.8 0 0 Z " fill="black" transform="translate(8,22)"/>
    <path d="M0 0 C4.62 0 9.24 0 14 0 C14 5.94 14 11.88 14 18 C16.27028076 17.97643433 16.27028076 17.97643433 18.58642578 17.95239258 C24.2108832 17.89802254 29.83531745 17.86362385 35.45996094 17.83520508 C37.89261789 17.82013466 40.32524774 17.79967477 42.7578125 17.77368164 C46.25788061 17.7372226 49.7575889 17.7202558 53.2578125 17.70703125 C54.88470505 17.68380547 54.88470505 17.68380547 56.54446411 17.66011047 C62.07759063 17.65888202 66.29759432 17.71734249 71 21 C73.29755922 24.44633882 73.23643976 25.71068391 73.1953125 29.76171875 C73.18886719 30.87998047 73.18242187 31.99824219 73.17578125 33.15039062 C73.15064453 34.90125977 73.15064453 34.90125977 73.125 36.6875 C73.11597656 37.86634766 73.10695313 39.04519531 73.09765625 40.25976562 C73.07406423 43.17338026 73.0411454 46.08658892 73 49 C74.64630328 48.85957123 76.29204179 48.71250671 77.9375 48.5625 C78.85402344 48.48128906 79.77054687 48.40007812 80.71484375 48.31640625 C82.96159732 48.23955024 82.96159732 48.23955024 84 47 C84.15858842 44.85613343 84.25129298 42.70733162 84.31640625 40.55859375 C84.35830078 39.25341797 84.40019531 37.94824219 84.44335938 36.60351562 C84.48317608 35.2148467 84.52288825 33.82617478 84.5625 32.4375 C84.60567989 31.04490817 84.649294 29.65232972 84.69335938 28.25976562 C84.79985806 24.83997451 84.90047056 21.42000104 85 18 C89.62 18 94.24 18 99 18 C99.33 27.9 99.66 37.8 100 48 C103.3 48 106.6 48 110 48 C110.33 38.1 110.66 28.2 111 18 C115.62 18 120.24 18 125 18 C125.06058594 20.08183594 125.12117187 22.16367187 125.18359375 24.30859375 C125.24615407 26.31747502 125.30874775 28.32635541 125.37231445 30.33520508 C125.41571434 31.73489199 125.45738564 33.13463359 125.49731445 34.53442383 C125.55489445 36.54261495 125.61914 38.55061149 125.68359375 40.55859375 C125.72025146 41.76829834 125.75690918 42.97800293 125.79467773 44.22436523 C125.68938266 46.90705456 125.68938266 46.90705456 127 48 C129.97 48.33 132.94 48.66 136 49 C136.33 38.77 136.66 28.54 137 18 C141.29 18 145.58 18 150 18 C150.1239816 23.30183459 150.21451776 28.60281794 150.2746582 33.90576172 C150.29973866 35.70799466 150.33381188 37.51012651 150.37719727 39.31201172 C150.4381375 41.90878277 150.46627346 44.50420465 150.48828125 47.1015625 C150.51408768 47.9017984 150.5398941 48.7020343 150.56648254 49.52651978 C150.5685031 53.59452652 150.2452267 56.23847332 147.70776367 59.50854492 C144.228091 62.71024537 141.51162093 62.86646651 137 62.6875 C135.95199219 62.70973633 135.95199219 62.70973633 134.8828125 62.73242188 C130.80936023 62.66709292 129.13819703 62.11714357 126 59.45703125 C125.01 58.24080078 125.01 58.24080078 124 57 C123.36320313 57.8146875 122.72640625 58.629375 122.0703125 59.46875 C117.92623087 62.88524478 115.07160021 62.68350755 109.875 62.5 C109.06417969 62.50257813 108.25335938 62.50515625 107.41796875 62.5078125 C101.51217458 62.41019607 101.51217458 62.41019607 99.24658203 60.59570312 C98 59 98 59 98 57 C97.34 57 96.68 57 96 57 C95.71125 57.639375 95.4225 58.27875 95.125 58.9375 C94 61 94 61 92 62 C90.63153259 62.09156105 89.25870253 62.12193944 87.88717651 62.12025452 C87.02618347 62.12162918 86.16519043 62.12300385 85.27810669 62.12442017 C84.33152191 62.12082489 83.38493713 62.11722961 82.40966797 62.11352539 C80.91693359 62.11374443 80.91693359 62.11374443 79.39404297 62.1139679 C76.09340257 62.11326931 72.79281808 62.10547944 69.4921875 62.09765625 C67.20818106 62.09579188 64.92417422 62.09436807 62.64016724 62.09336853 C56.61988222 62.08954487 50.59962121 62.07971586 44.5793457 62.06866455 C38.43961919 62.05844718 32.29988881 62.05387021 26.16015625 62.04882812 C14.10676027 62.03809348 2.05338213 62.02101885 -10 62 C-9.94779297 63.75376953 -9.94779297 63.75376953 -9.89453125 65.54296875 C-9.86638284 67.09113141 -9.83908381 68.63930968 -9.8125 70.1875 C-9.78736328 70.95642578 -9.76222656 71.72535156 -9.73632812 72.51757812 C-9.67637655 77.17381728 -9.92977712 80.24107832 -13 84 C-19.34903358 87.03807624 -26.12367507 86.12974198 -33 86 C-33 81.38 -33 76.76 -33 72 C-28.545 71.505 -28.545 71.505 -24 71 C-23.67 57.8 -23.34 44.6 -23 31 C-18.71 31 -14.42 31 -10 31 C-10 36.94 -10 42.88 -10 49 C-6.7 49 -3.4 49 0 49 C0 32.83 0 16.66 0 0 Z " fill="black" transform="translate(128,245)"/>
    <path d="M0 0 C4.29 0 8.58 0 13 0 C13.06785394 7.60625242 13.12286109 15.21239168 13.15543652 22.81887341 C13.17107343 26.35112466 13.19227501 29.88315759 13.22631836 33.4152832 C13.26523603 37.47869937 13.27972547 41.54188721 13.29296875 45.60546875 C13.30845261 46.8702153 13.32393646 48.13496185 13.33988953 49.43803406 C13.34022942 51.20930412 13.34022942 51.20930412 13.34057617 53.01635742 C13.35056892 54.57189583 13.35056892 54.57189583 13.36076355 56.15885925 C12.93528973 59.50961627 12.05139739 61.32879968 10 64 C6.81848234 66.02387575 4.31583154 66.24771396 0.5836792 66.24050903 C-0.51565948 66.24325836 -1.61499817 66.24600769 -2.74765015 66.24884033 C-3.94886505 66.24164978 -5.15007996 66.23445923 -6.38769531 66.22705078 C-8.29051773 66.22748886 -8.29051773 66.22748886 -10.23178101 66.22793579 C-13.70669667 66.22850949 -17.1814742 66.21675241 -20.65635777 66.20278788 C-24.28918825 66.19028342 -27.92202192 66.18911024 -31.55487061 66.18673706 C-38.43254878 66.18052145 -45.31016335 66.16410955 -52.18781352 66.14403808 C-60.01846176 66.12168159 -67.84911304 66.11068628 -75.67978525 66.10064721 C-91.78656178 66.07974339 -107.89327026 66.04416287 -124 66 C-124 61.71 -124 57.42 -124 53 C-110.8 53 -97.6 53 -84 53 C-83.16067097 43.66996836 -83.16067097 43.66996836 -86 36 C-88.28988781 35.84111908 -90.58443441 35.74861927 -92.87890625 35.68359375 C-93.5655687 35.66281265 -94.25223114 35.64203156 -94.95970154 35.62062073 C-97.16052935 35.55505857 -99.36147975 35.49620985 -101.5625 35.4375 C-103.05144514 35.39432108 -104.54037773 35.350707 -106.02929688 35.30664062 C-109.68606553 35.1993707 -113.34297318 35.09812228 -117 35 C-117 30.71 -117 26.42 -117 22 C-111.71642089 21.92551884 -106.43315137 21.87124205 -101.14916992 21.83520508 C-99.35386833 21.82017284 -97.55860312 21.79974143 -95.76342773 21.77368164 C-93.17422474 21.73705214 -90.58550972 21.7202179 -87.99609375 21.70703125 C-86.80348183 21.68380547 -86.80348183 21.68380547 -85.58677673 21.66011047 C-80.32503287 21.65854223 -76.61510676 22.39059767 -72 25 C-69.64869598 28.02713276 -69.76480472 30.89164385 -69.8046875 34.640625 C-69.81113281 35.71054687 -69.81757813 36.78046875 -69.82421875 37.8828125 C-69.84097656 38.99398437 -69.85773438 40.10515625 -69.875 41.25 C-69.88402344 42.37664062 -69.89304688 43.50328125 -69.90234375 44.6640625 C-69.92589237 47.44279922 -69.96176275 50.22142659 -70 53 C-66.37 53 -62.74 53 -59 53 C-59.05220703 50.59654297 -59.05220703 50.59654297 -59.10546875 48.14453125 C-59.13361097 46.03386466 -59.16091067 43.92318672 -59.1875 41.8125 C-59.21263672 40.75740234 -59.23777344 39.70230469 -59.26367188 38.61523438 C-59.27333984 37.59365234 -59.28300781 36.57207031 -59.29296875 35.51953125 C-59.3086792 34.58214111 -59.32438965 33.64475098 -59.34057617 32.67895508 C-58.79024852 28.35010541 -57.13697834 25.89844112 -53.73779297 23.21240234 C-50.38300341 21.72676966 -47.86059854 21.6120191 -44.1953125 21.6015625 C-42.88949219 21.59769531 -41.58367187 21.59382813 -40.23828125 21.58984375 C-39.5623291 21.59612793 -38.88637695 21.60241211 -38.18994141 21.60888672 C-36.1376641 21.62490118 -34.0873715 21.60904173 -32.03515625 21.58984375 C-19.43148393 21.62709598 -19.43148393 21.62709598 -14 25 C-11.70244078 28.44633882 -11.76356024 29.71068391 -11.8046875 33.76171875 C-11.81113281 34.87998047 -11.81757813 35.99824219 -11.82421875 37.15039062 C-11.84935547 38.90125977 -11.84935547 38.90125977 -11.875 40.6875 C-11.88402344 41.86634766 -11.89304687 43.04519531 -11.90234375 44.25976562 C-11.92593577 47.17338026 -11.9588546 50.08658892 -12 53 C-10.35369672 52.85957123 -8.70795821 52.71250671 -7.0625 52.5625 C-6.14597656 52.48128906 -5.22945313 52.40007812 -4.28515625 52.31640625 C-2.03840268 52.23955024 -2.03840268 52.23955024 -1 51 C-0.87727151 49.40486107 -0.82218957 47.80445068 -0.79467773 46.20483398 C-0.77473251 45.18385117 -0.75478729 44.16286835 -0.73423767 43.11094666 C-0.71752518 42.0005452 -0.70081268 40.89014374 -0.68359375 39.74609375 C-0.6524221 38.05021873 -0.6524221 38.05021873 -0.62062073 36.32008362 C-0.55500203 32.69262015 -0.49618323 29.06508167 -0.4375 25.4375 C-0.39432649 22.98501814 -0.3507126 20.532544 -0.30664062 18.08007812 C-0.19930812 12.05346316 -0.09807578 6.02677243 0 0 Z " fill="black" transform="translate(240,315)"/>
    <path d="M0 0 C4.29 0 8.58 0 13 0 C13.02505615 1.32241699 13.0501123 2.64483398 13.07592773 4.00732422 C13.16991165 8.90130754 13.27015418 13.79514593 13.37231445 18.68896484 C13.41569752 20.80937313 13.45737007 22.92981712 13.49731445 25.05029297 C13.55493543 28.09353408 13.61865325 31.1365949 13.68359375 34.1796875 C13.70030624 35.13181122 13.71701874 36.08393494 13.73423767 37.06491089 C13.75418289 37.94567291 13.77412811 38.82643494 13.79467773 39.73388672 C13.81022202 40.51110077 13.8257663 41.28831482 13.84178162 42.08908081 C13.88783251 44.08556935 13.88783251 44.08556935 15 46 C17.97922593 46.02683987 20.95821295 46.04676037 23.9375 46.0625 C24.78763672 46.07087891 25.63777344 46.07925781 26.51367188 46.08789062 C27.32255859 46.09111328 28.13144531 46.09433594 28.96484375 46.09765625 C29.7137085 46.10289307 30.46257324 46.10812988 31.23413086 46.11352539 C33.02667739 46.19341752 33.02667739 46.19341752 34 45 C34.12209924 43.58882298 34.17770872 42.17179541 34.20532227 40.75561523 C34.22526749 39.85475693 34.24521271 38.95389862 34.26576233 38.02574158 C34.28247482 37.04658279 34.29918732 36.06742401 34.31640625 35.05859375 C34.33718735 34.06118668 34.35796844 33.0637796 34.37937927 32.03614807 C34.44498637 28.83667157 34.50381134 25.63711018 34.5625 22.4375 C34.60567462 20.27407961 34.64928855 18.11066794 34.69335938 15.94726562 C34.80067909 10.63159836 34.90191469 5.31584536 35 0 C39.62 0 44.24 0 49 0 C49.33 9.9 49.66 19.8 50 30 C53.3 30 56.6 30 60 30 C60.33 20.1 60.66 10.2 61 0 C65.62 0 70.24 0 75 0 C75.06058594 2.08183594 75.12117188 4.16367187 75.18359375 6.30859375 C75.24615407 8.31747502 75.30874775 10.32635541 75.37231445 12.33520508 C75.41571434 13.73489199 75.45738564 15.13463359 75.49731445 16.53442383 C75.55489445 18.54261495 75.61914 20.55061149 75.68359375 22.55859375 C75.72025146 23.76829834 75.75690918 24.97800293 75.79467773 26.22436523 C75.68938266 28.90705456 75.68938266 28.90705456 77 30 C79.64 30 82.28 30 85 30 C85.33 20.1 85.66 10.2 86 0 C90.62 0 95.24 0 100 0 C100.09920549 5.15944873 100.17162646 10.31833689 100.21972656 15.47851562 C100.2397871 17.23219479 100.26704251 18.98580753 100.30175781 20.73925781 C100.35052302 23.26644318 100.37302392 25.79274091 100.390625 28.3203125 C100.41127014 29.09867462 100.43191528 29.87703674 100.45318604 30.6789856 C100.45531932 35.90631589 99.45923427 38.85004461 96 43 C91.14475716 45.42762142 84.3214592 44.53271264 79 44 C76.14286857 42.62665615 75.04390601 41.47746183 73 39 C72.35546875 39.81726563 71.7109375 40.63453125 71.046875 41.4765625 C66.98623391 44.83960627 64.33629532 44.62373957 59.25 44.375 C58.47011719 44.36082031 57.69023438 44.34664063 56.88671875 44.33203125 C51.18324498 44.18324498 51.18324498 44.18324498 50 43 C49.85304688 44.22976563 49.85304688 44.22976563 49.703125 45.484375 C49.55359375 46.56203125 49.4040625 47.6396875 49.25 48.75 C49.11078125 49.81734375 48.9715625 50.8846875 48.828125 51.984375 C47.87568655 55.45268859 46.79277783 56.78646498 44 59 C40.37253682 60.20915439 37.00628422 60.20026375 33.2265625 60.23828125 C32.46580414 60.246353 31.70504578 60.25442474 30.92123413 60.26274109 C29.31242132 60.27656024 27.70357946 60.28729209 26.09472656 60.29516602 C23.64070919 60.31238974 21.18803596 60.35629371 18.734375 60.40039062 C17.16928071 60.41051741 15.604175 60.41903356 14.0390625 60.42578125 C12.94351547 60.45204338 12.94351547 60.45204338 11.82583618 60.47883606 C8.16317826 60.46332153 6.16550782 60.10705368 3.06005859 58.09838867 C-0.06319592 54.91702193 -0.12363878 53.16467412 -0.11352539 48.81591797 C-0.11344986 47.73494843 -0.11337433 46.65397888 -0.11329651 45.54025269 C-0.10813522 44.36939117 -0.10297394 43.19852966 -0.09765625 41.9921875 C-0.0962413 40.79643097 -0.09482635 39.60067444 -0.09336853 38.36868286 C-0.08775663 34.53743013 -0.07520208 30.70623516 -0.0625 26.875 C-0.05748653 24.28255293 -0.05292336 21.69010494 -0.04882812 19.09765625 C-0.03778333 12.73174847 -0.02051068 6.36588404 0 0 Z " fill="black" transform="translate(9,337)"/>
    <path d="M0 0 C4.71391399 -0.074557 9.42747929 -0.12879273 14.1418457 -0.16479492 C15.74314356 -0.17981466 17.34440075 -0.20023663 18.94555664 -0.22631836 C21.25677571 -0.26300438 23.56744756 -0.27979435 25.87890625 -0.29296875 C26.58648575 -0.30845261 27.29406525 -0.32393646 28.02308655 -0.33988953 C33.16295073 -0.34160181 36.53605452 0.62767235 41 3 C44.47077346 7.38413489 46.13500961 10.88356848 46.09765625 16.44921875 C46.09515869 17.21322998 46.09266113 17.97724121 46.09008789 18.7644043 C46.08098389 19.72902588 46.07187988 20.69364746 46.0625 21.6875 C46.041875 24.760625 46.02125 27.83375 46 31 C55.9 30.505 55.9 30.505 66 30 C66.33 20.1 66.66 10.2 67 0 C71.62 0 76.24 0 81 0 C81.09920549 5.15944873 81.17162646 10.31833689 81.21972656 15.47851562 C81.2397871 17.23219479 81.26704251 18.98580753 81.30175781 20.73925781 C81.35052302 23.26644318 81.37302392 25.79274091 81.390625 28.3203125 C81.41127014 29.09867462 81.43191528 29.87703674 81.45318604 30.6789856 C81.45531932 35.90631589 80.45923427 38.85004461 77 43 C74.19958289 44.40020855 71.84697961 44.16363335 68.71435547 44.20532227 C68.07032776 44.21522186 67.42630005 44.22512146 66.76275635 44.23532104 C64.63093765 44.26694499 62.49909665 44.29169687 60.3671875 44.31640625 C58.89030371 44.33697502 57.41342582 44.35797147 55.93655396 44.37937927 C52.04694389 44.43460799 48.15728063 44.4840137 44.26757812 44.53222656 C40.29943093 44.58243577 36.33136111 44.63812486 32.36328125 44.69335938 C24.57558633 44.80095072 16.78782714 44.90239348 9 45 C9 47.97 9 50.94 9 54 C32.265 54.495 32.265 54.495 56 55 C56 58.96 56 62.92 56 67 C48.11632957 67.09887388 40.23302005 67.17147304 32.34887695 67.21972656 C29.66672177 67.23758325 26.9849454 67.26541436 24.30297852 67.30175781 C20.44796934 67.35027542 16.59354002 67.37296994 12.73828125 67.390625 C11.53915604 67.41127014 10.34003082 67.43191528 9.10456848 67.45318604 C0.80171364 67.45542419 0.80171364 67.45542419 -3.23364258 65.16308594 C-7.03723429 60.50519754 -6.29355579 54.91450911 -6.375 49.1875 C-6.41238281 48.20201172 -6.44976563 47.21652344 -6.48828125 46.20117188 C-6.58699874 38.03504174 -6.58699874 38.03504174 -3.6640625 34.36328125 C0.51180609 30.6588817 3.66485694 30.88026472 9.07421875 30.90234375 C10.09996758 30.90446617 10.09996758 30.90446617 11.1464386 30.90663147 C13.32683722 30.91222124 15.50713251 30.92477178 17.6875 30.9375 C19.16731622 30.94251633 20.64713406 30.947079 22.12695312 30.95117188 C25.75133557 30.96218729 29.3756577 30.97944488 33 31 C32.91320858 28.53991222 32.80639045 26.08356483 32.6875 23.625 C32.65366211 22.57699219 32.65366211 22.57699219 32.61914062 21.5078125 C32.53015704 19.22711059 32.53015704 19.22711059 32 16 C28.41577704 13.61051803 26.62767404 13.69766832 22.36328125 13.5859375 C21.06455078 13.54726563 19.76582031 13.50859375 18.42773438 13.46875 C17.05599427 13.43729483 15.68424939 13.40604749 14.3125 13.375 C12.92901215 13.33680803 11.54554777 13.29775558 10.16210938 13.2578125 C6.77496528 13.16339733 3.38750089 13.08060428 0 13 C0 8.71 0 4.42 0 0 Z " fill="black" transform="translate(14,263)"/>
    <path d="M0 0 C4.62 0 9.24 0 14 0 C14 22.11 14 44.22 14 67 C9.38 67 4.76 67 0 67 C0 44.89 0 22.78 0 0 Z " fill="black" transform="translate(264,315)"/>
    <path d="M0 0 C6.06890175 -0.07408977 12.13754097 -0.12857359 18.20678711 -0.16479492 C20.27193791 -0.17989271 22.3370566 -0.20037274 24.40209961 -0.22631836 C27.36840739 -0.26265795 30.33429171 -0.2797163 33.30078125 -0.29296875 C34.2258699 -0.30845261 35.15095856 -0.32393646 36.1040802 -0.33988953 C36.96474594 -0.34011612 37.82541168 -0.34034271 38.7121582 -0.34057617 C39.46938675 -0.34723801 40.2266153 -0.35389984 41.00679016 -0.36076355 C43 0 43 0 46 3 C46 7.95 46 12.9 46 18 C30.82 18 15.64 18 0 18 C0 12.06 0 6.12 0 0 Z " fill="#663D99" transform="translate(142,276)"/>
    <path d="M0 0 C0.73734375 0.00773437 1.4746875 0.01546875 2.234375 0.0234375 C3.34039062 0.01183594 3.34039062 0.01183594 4.46875 0 C9.9810554 0.0201179 9.9810554 0.0201179 12.234375 2.2734375 C12.40601231 4.83636067 12.46702058 7.27689607 12.421875 9.8359375 C12.42123047 10.53396484 12.42058594 11.23199219 12.41992188 11.95117188 C12.37468658 17.13312592 12.37468658 17.13312592 11.234375 18.2734375 C9.90393875 18.3718096 8.56844156 18.40422342 7.234375 18.40625 C6.43 18.40753906 5.625625 18.40882813 4.796875 18.41015625 C3.95125 18.40628906 3.105625 18.40242188 2.234375 18.3984375 C1.38875 18.40230469 0.543125 18.40617187 -0.328125 18.41015625 C-1.1325 18.40886719 -1.936875 18.40757812 -2.765625 18.40625 C-3.508125 18.40512207 -4.250625 18.40399414 -5.015625 18.40283203 C-6.765625 18.2734375 -6.765625 18.2734375 -7.765625 17.2734375 C-7.89215698 14.78105181 -7.95082325 12.32873309 -7.953125 9.8359375 C-7.96537109 9.14177734 -7.97761719 8.44761719 -7.99023438 7.73242188 C-7.99552342 5.91122849 -7.88731707 4.0905683 -7.765625 2.2734375 C-5.20613501 -0.28605249 -3.49355305 0.01275019 0 0 Z " fill="#663D99" transform="translate(202.765625,349.7265625)"/>
    <path d="M0 0 C4.62 0 9.24 0 14 0 C14 4.62 14 9.24 14 14 C9.38 14 4.76 14 0 14 C0 9.38 0 4.76 0 0 Z " fill="black" transform="translate(208,318)"/>
    <path d="M0 0 C4.62 0 9.24 0 14 0 C14 4.62 14 9.24 14 14 C9.38 14 4.76 14 0 14 C0 9.38 0 4.76 0 0 Z " fill="black" transform="translate(188,318)"/>
    <path d="M0 0 C4.62 0 9.24 0 14 0 C14 4.62 14 9.24 14 14 C9.38 14 4.76 14 0 14 C0 9.38 0 4.76 0 0 Z " fill="black" transform="translate(264,245)"/>
    <path d="M0 0 C4.62 0 9.24 0 14 0 C14 4.62 14 9.24 14 14 C9.38 14 4.76 14 0 14 C0 9.38 0 4.76 0 0 Z " fill="black" transform="translate(239,245)"/>
    <path d="M0 0 C4.62 0 9.24 0 14 0 C14 4.62 14 9.24 14 14 C9.38 14 4.76 14 0 14 C0 9.38 0 4.76 0 0 Z " fill="black" transform="translate(213,245)"/>
    <path d="M0 0 C4.62 0 9.24 0 14 0 C14 4.62 14 9.24 14 14 C9.38 14 4.76 14 0 14 C0 9.38 0 4.76 0 0 Z " fill="black" transform="translate(81,245)"/>
    <path d="M0 0 C4.62 0 9.24 0 14 0 C14 4.29 14 8.58 14 13 C9.38 13 4.76 13 0 13 C0 8.71 0 4.42 0 0 Z " fill="black" transform="translate(76,318)"/>
</svg>
