<?xml version="1.0" standalone="no"?>
<!DOCTYPE svg PUBLIC "-//W3C//DTD SVG 20010904//EN"
 "http://www.w3.org/TR/2001/REC-SVG-20010904/DTD/svg10.dtd">
<svg version="1.0" xmlns="http://www.w3.org/2000/svg"
 width="152.000000pt" height="193.000000pt" viewBox="0 0 152.000000 193.000000"
 preserveAspectRatio="xMidYMid meet">

<g transform="translate(0.000000,193.000000) scale(0.100000,-0.100000)"
fill="#000000" stroke="none">
<path d="M386 1808 c-3 -13 -11 -86 -17 -163 -12 -139 -13 -140 -54 -205 -57
-88 -77 -129 -114 -233 -69 -196 -99 -430 -108 -849 l-6 -288 626 0 c345 0
627 1 627 3 0 1 -56 155 -124 342 l-124 340 95 13 c126 17 196 45 249 98 78
77 96 221 43 330 -50 101 -188 213 -365 296 -89 42 -321 121 -407 139 -37 9
-80 33 -171 98 -155 112 -145 106 -150 79z m475 -476 c49 -40 17 -122 -48
-122 -65 0 -93 61 -52 114 25 31 66 35 100 8z"/>
</g>
</svg>
