<?xml version="1.0" standalone="no"?>
<!DOCTYPE svg PUBLIC "-//W3C//DTD SVG 20010904//EN"
        "http://www.w3.org/TR/2001/REC-SVG-20010904/DTD/svg10.dtd">
<svg version="1.0" xmlns="http://www.w3.org/2000/svg"
     width="124.000000pt" height="188.000000pt" viewBox="0 0 124.000000 188.000000"
     preserveAspectRatio="xMidYMid meet">

    <g transform="translate(0.000000,188.000000) scale(0.100000,-0.100000)"
       fill="#f0f5f7" stroke="black" stroke-width="15">
        <path d="M577 1630 c-115 -20 -231 -113 -285 -227 -24 -51 -27 -70 -27 -158 0
-93 2 -105 32 -165 120 -242 411 -301 603 -123 40 37 70 77 92 121 31 62 33
74 33 167 0 93 -2 105 -33 167 -77 158 -248 247 -415 218z"/>
        <path d="M305 688 c-2 -7 -46 -147 -98 -310 l-95 -298 529 0 c360 0 529 3 529
10 0 6 -18 66 -39 133 -22 67 -65 202 -96 300 l-56 177 -335 0 c-259 0 -336
-3 -339 -12z"/>
    </g>
</svg>
