<?xml version="1.0" encoding="UTF-8"?>
<svg version="1.1" xmlns="http://www.w3.org/2000/svg" width="359" height="523">
<!--<path d="M0 0 C118.47 0 236.94 0 359 0 C359 172.59 359 345.18 359 523 C240.53 523 122.06 523 0 523 C0 350.41 0 177.82 0 0 Z " fill="#EFF4F6" transform="translate(0,0)"/>-->
<path d="M0 0 C31.35 0 62.7 0 95 0 C95 11.55 95 23.1 95 35 C97.97 35 100.94 35 104 35 C104 23.45 104 11.9 104 0 C135.35 0 166.7 0 199 0 C199 11.55 199 23.1 199 35 C202.3 35 205.6 35 209 35 C209 23.45 209 11.9 209 0 C240.35 0 271.7 0 304 0 C304 62.37 304 124.74 304 189 C303.01 189 302.02 189 301 189 C300.86464844 188.40574219 300.72929687 187.81148437 300.58984375 187.19921875 C297.56860597 175.56654872 290.68026857 167.23328142 282.55078125 158.7265625 C280.22431618 156.23977441 278.08723991 153.68848232 276 151 C278.01822917 150.57682292 280.03645833 150.15364583 282.0546875 149.73046875 C284.37046549 149.07691162 284.37046549 149.07691162 286 146 C286.5 143 286.5 143 286 140 C283.65048433 137.1610019 281.25579449 136.77248013 277.75 136.3125 C275.89375 136.1578125 275.89375 136.1578125 274 136 C273.49407195 130.63409648 273.49407195 130.63409648 275.7578125 127.796875 C276.53898437 127.12140625 277.32015625 126.4459375 278.125 125.75 C284.55179144 119.75840861 290.36984418 111.85458718 291.3359375 102.87890625 C291.55042387 94.16549343 291.55042387 94.16549343 287 87 C283.04000118 83.40000107 278.79423155 83.51123049 273.671875 83.62890625 C269.83004804 84.16249333 267.90378461 85.48861871 265 88 C264.38125 87.21625 263.7625 86.4325 263.125 85.625 C261.10141339 83.03162353 261.10141339 83.03162353 259 81 C259.55429687 80.68546875 260.10859375 80.3709375 260.6796875 80.046875 C261.40414063 79.61890625 262.12859375 79.1909375 262.875 78.75 C263.59429687 78.33234375 264.31359375 77.9146875 265.0546875 77.484375 C267.96864503 75.26087327 268.80994564 73.21234675 269.37109375 69.6328125 C269.4867426 65.2653677 269.56264275 62.01363987 266.75 58.5 C262.15721992 54.32474538 258.67489577 53.44841131 252.546875 53.5390625 C248.31538397 54.3048845 245.72165267 56.78728461 243 60 C241.14253927 63.71492147 241.5578193 67.94563892 242 72 C244.36002361 76.99235764 246.93369376 78.92742018 252 81 C251.0409375 82.175625 251.0409375 82.175625 250.0625 83.375 C248.01857687 85.79539281 248.01857687 85.79539281 247 88 C246.34 88 245.68 88 245 88 C245 87.34 245 86.68 245 86 C239.70613089 83.77100248 234.66283545 83.25416314 229 84 C224.44684104 86.23518713 222.25940786 88.51991699 220 93 C218.55908575 102.17771509 220.58844485 110.13550696 225.87109375 117.66796875 C228.70136948 121.29007966 231.56745701 124.68907135 235 127.75 C237 130 237 130 237.3125 133.3125 C237.1578125 134.6428125 237.1578125 134.6428125 237 136 C236.30132812 136.12117187 235.60265625 136.24234375 234.8828125 136.3671875 C233.51769531 136.61855469 233.51769531 136.61855469 232.125 136.875 C230.76761719 137.11863281 230.76761719 137.11863281 229.3828125 137.3671875 C226.83494012 137.83044703 226.83494012 137.83044703 225 140 C224.53417715 143.57130851 224.53002602 145.33119087 226.625 148.3125 C229.43958033 150.31233339 231.59319587 150.69029053 235 151 C234.21625 151.9075 233.4325 152.815 232.625 153.75 C232.07972656 154.39324219 231.53445312 155.03648437 230.97265625 155.69921875 C229.54344228 157.36616336 228.08957926 159.01207691 226.62109375 160.64453125 C215.35357213 173.49466659 209.77508011 186.4864894 209.5859375 203.71875 C209.56657135 204.81723267 209.5472052 205.91571533 209.5272522 207.04748535 C209.46781137 210.53157967 209.42121333 214.01570766 209.375 217.5 C209.33678756 219.87240968 209.29773395 222.24480597 209.2578125 224.6171875 C209.16213906 230.41134868 209.0779775 236.20557475 209 242 C205.7 242 202.4 242 199 242 C198.99191315 240.69138 198.98382629 239.38276001 198.97549438 238.03448486 C198.89755345 225.6202067 198.80969916 213.20603171 198.71247292 200.79188919 C198.66281381 194.41173671 198.61648455 188.0315984 198.578125 181.65136719 C198.54088405 175.4785654 198.49442653 169.30589187 198.44193649 163.1332016 C198.42359632 160.79407787 198.40841581 158.45492687 198.39665604 156.1157608 C198.33889775 145.01021918 198.18208339 133.96598163 197.11083984 122.90527344 C197.03552347 122.1170583 196.9602071 121.32884315 196.88260841 120.51674271 C195.25128983 105.57470572 189.2805759 91.43554211 177.46875 81.76953125 C164.20391666 72.26166811 146.91471586 68.51331466 130.95703125 66.421875 C122.99813772 65.28639217 115.24091318 63.53625992 108 60 C108.2165625 60.77601562 108.433125 61.55203125 108.65625 62.3515625 C111.6082642 73.80428427 112.06548513 83.6536901 108.80664062 95.01513672 C107.42777603 100.11743652 106.51831904 105.30480569 105.5625 110.5 C104.22104264 117.69234219 102.83644413 124.85830358 101.22338867 131.99487305 C99.47392023 139.76506342 98.42389017 146.98247155 99 155 C99.60328125 155.26554688 100.2065625 155.53109375 100.828125 155.8046875 C102.02695313 156.33449219 102.02695313 156.33449219 103.25 156.875 C104.03890625 157.22304687 104.8278125 157.57109375 105.640625 157.9296875 C108 159 108 159 110.0625 160.15625 C113.1264486 161.4905502 115.80428444 160.61456069 119 160 C119.27457031 159.27683594 119.54914063 158.55367187 119.83203125 157.80859375 C125.55987019 144.03496097 133.48669393 138.8173155 146.74609375 133.3203125 C147.81988281 132.88460937 148.89367187 132.44890625 150 132 C149.52547411 136.8115905 149.05306768 140.71913417 146.8125 145.0625 C146.42707031 145.83722656 146.04164063 146.61195313 145.64453125 147.41015625 C141.36543949 154.14896346 136.03350237 158.77496732 129.625 163.4375 C118.53465135 171.74223352 108.46790736 180.26515194 105.47290039 194.50634766 C104.85381186 199.07999601 104.76631733 203.6003005 104.68359375 208.2109375 C104.66281265 209.17907379 104.64203156 210.14721008 104.62062073 211.14468384 C104.55551016 214.22138732 104.49642002 217.29817236 104.4375 220.375 C104.39427814 222.46745617 104.3506627 224.55990426 104.30664062 226.65234375 C104.19986844 231.76814669 104.09849364 236.88403125 104 242 C101.03 242 98.06 242 95 242 C94.9906543 240.68507568 94.98130859 239.37015137 94.97167969 238.01538086 C94.93135572 233.06681277 94.86548586 228.11883908 94.79248047 223.1706543 C94.76451404 221.04215212 94.74318054 218.91355079 94.72900391 216.78491211 C94.5816032 195.8884053 92.4675202 178.54352767 77 163 C75.71834016 161.8842335 74.42605476 160.78058889 73.125 159.6875 C66.37782349 153.92267103 57.82614274 145.228749 56.765625 135.94921875 C56.75 134 56.75 134 57 131 C58.12148437 130.96132813 58.12148437 130.96132813 59.265625 130.921875 C65.2796341 130.65771648 65.2796341 130.65771648 70.6875 128.3125 C72.39345822 125.3067641 72.43490509 123.40675656 72 120 C70.29532084 116.70699334 70.29532084 116.70699334 66.9609375 116.26953125 C65.77757813 116.11871094 64.59421875 115.96789062 63.375 115.8125 C61.59222656 115.57466797 61.59222656 115.57466797 59.7734375 115.33203125 C58.85820313 115.22246094 57.94296875 115.11289063 57 115 C58.28692185 111.12603524 59.59173802 109.16927261 62.8125 106.6875 C68.5101622 101.94290129 72.45718378 96.45947856 73.203125 88.95703125 C73.37510864 81.0887799 71.48399227 73.89936487 66.65625 67.5703125 C60.61633448 61.84378882 52.4698567 59.64702386 44.36328125 59.79296875 C36.6659338 60.46728183 31.1290425 64.39436506 26 70 C20.82519451 76.48304283 21.30005539 84.06729443 22 92 C22.82461312 99.11382663 27.86000422 103.24266006 32.88378906 107.87744141 C34.30537335 109.20034079 35.65842524 110.59602642 37 112 C37 112.99 37 113.98 37 115 C36.25234375 115.02578125 35.5046875 115.0515625 34.734375 115.078125 C28.7203659 115.34228352 28.7203659 115.34228352 23.3125 117.6875 C21.56999486 120.75762811 21.42035388 122.52212326 22 126 C23.1982517 128.5368109 23.1982517 128.5368109 26 130 C29.66039334 130.62674361 33.29131094 130.87211417 37 131 C37.73132191 137.7281616 35.69695346 142.40289196 32 148 C27.41452052 153.53931574 22.43270272 158.641632 17.25 163.625 C9.31416609 171.52295404 5.0366281 180.73838864 1 191 C0.67 191 0.34 191 0 191 C0 127.97 0 64.94 0 0 Z " fill="#F0C231" transform="translate(15,37)"/>
<path d="M0 0 C4.95 0 9.9 0 15 0 C15 6.6 15 13.2 15 20 C16.79139404 19.98428955 18.58278809 19.9685791 20.4284668 19.95239258 C26.35560897 19.90396406 32.2827443 19.86952155 38.21002483 19.84456348 C41.80280829 19.82892561 45.39537715 19.80772221 48.98803711 19.77368164 C52.45694391 19.74102035 55.92564464 19.72313286 59.39469337 19.71536827 C61.35838752 19.70714982 63.32199908 19.68374108 65.28556824 19.66011047 C66.4864357 19.65988388 67.68730316 19.65965729 68.92456055 19.65942383 C69.97935104 19.65276199 71.03414154 19.64610016 72.12089539 19.63923645 C75.43940964 20.05505982 77.30586307 21.05427075 80 23 C82.42856647 26.32502943 82.23190283 29.4906887 82.1953125 33.515625 C82.18886719 34.76601563 82.18242187 36.01640625 82.17578125 37.3046875 C82.15064453 39.25761719 82.15064453 39.25761719 82.125 41.25 C82.11597656 42.56742187 82.10695313 43.88484375 82.09765625 45.2421875 C82.07408609 48.49486916 82.03821525 51.74745744 82 55 C87.94 54.505 87.94 54.505 94 54 C94.33 42.78 94.66 31.56 95 20 C99.95 20 104.9 20 110 20 C110.04898438 22.28679687 110.09796875 24.57359375 110.1484375 26.9296875 C110.20242291 29.14052975 110.25973985 31.35126217 110.31738281 33.56201172 C110.35570301 35.10034021 110.39055056 36.63875925 110.421875 38.17724609 C110.46746059 40.38672276 110.5254634 42.59557448 110.5859375 44.8046875 C110.60326431 45.83914505 110.60326431 45.83914505 110.62094116 46.89450073 C110.64951022 50.8920154 110.64951022 50.8920154 113 54 C115.44012949 54.24287489 115.44012949 54.24287489 118.125 54.125 C119.03507813 54.10695313 119.94515625 54.08890625 120.8828125 54.0703125 C121.58148438 54.04710937 122.28015625 54.02390625 123 54 C124.47206013 51.05587973 124.23807192 48.03714085 124.31640625 44.8046875 C124.3475779 43.74352219 124.3475779 43.74352219 124.37937927 42.66091919 C124.44481078 40.39904575 124.50372974 38.13705538 124.5625 35.875 C124.60569133 34.34243578 124.64930582 32.80988343 124.69335938 31.27734375 C124.80128289 27.51834732 124.90040283 23.75926325 125 20 C129.95 20 134.9 20 140 20 C140.04898438 22.28679687 140.09796875 24.57359375 140.1484375 26.9296875 C140.20242291 29.14052975 140.25973985 31.35126217 140.31738281 33.56201172 C140.35570301 35.10034021 140.39055056 36.63875925 140.421875 38.17724609 C140.46746059 40.38672276 140.5254634 42.59557448 140.5859375 44.8046875 C140.60326431 45.83914505 140.60326431 45.83914505 140.62094116 46.89450073 C140.64951022 50.8920154 140.64951022 50.8920154 143 54 C145.71454956 54.32752234 148.25230759 54.1308425 151 54 C152.95098085 52.04901915 152.25415108 48.35325071 152.31640625 45.68359375 C152.3475779 44.58701195 152.3475779 44.58701195 152.37937927 43.46827698 C152.44495024 41.12478344 152.50379432 38.78117461 152.5625 36.4375 C152.60567808 34.85220145 152.64929213 33.26691471 152.69335938 31.68164062 C152.80146282 27.78787702 152.90047883 23.89403042 153 20 C158.28 20 163.56 20 169 20 C169.07446471 25.42599527 169.12875037 30.8516894 169.16479492 36.27807617 C169.17982988 38.12187892 169.20026333 39.96564622 169.22631836 41.80932617 C169.26293561 44.4680255 169.27977943 47.12624971 169.29296875 49.78515625 C169.30845261 50.60210464 169.32393646 51.41905304 169.33988953 52.26075745 C169.34163875 58.28426718 168.43606584 63.21592475 164.33203125 67.90625 C160.8556575 69.53671005 157.45384089 69.52917445 153.6875 69.5 C152.9251001 69.49935547 152.1627002 69.49871094 151.37719727 69.49804688 C145.50164345 69.3411799 142.19665342 68.30425992 138 64 C137.36964844 64.81210937 136.73929688 65.62421875 136.08984375 66.4609375 C131.87511359 69.92436936 128.8530569 69.74718376 123.5625 69.625 C122.72912109 69.64433594 121.89574219 69.66367187 121.03710938 69.68359375 C116.64961069 69.64890997 113.83961063 69.31607846 110.40234375 66.4609375 C109.60957031 65.64882813 108.81679688 64.83671875 108 64 C107.40254471 64.81329269 106.80508942 65.62658539 106.18952942 66.46452332 C102.87142601 69.74551793 99.63569772 69.59013929 95.14331055 69.62210083 C94.09530273 69.60412445 93.04729492 69.58614807 91.9675293 69.56762695 C90.85489212 69.56835709 89.74225494 69.56908722 88.59590149 69.56983948 C84.92150984 69.56635853 81.24838872 69.52747034 77.57421875 69.48828125 C75.02546379 69.47895501 72.47669987 69.47183801 69.92793274 69.46684265 C63.90713056 69.44970842 57.88687302 69.4103105 51.86628896 69.3600952 C45.01026152 69.30415638 38.15421203 69.27670397 31.29801309 69.25161803 C17.19842351 69.1993926 3.0992367 69.11147889 -11 69 C-10.95359375 70.22976563 -10.9071875 71.45953125 -10.859375 72.7265625 C-10.82183964 74.3593506 -10.78544138 75.99216511 -10.75 77.625 C-10.69972656 78.83736328 -10.69972656 78.83736328 -10.6484375 80.07421875 C-10.55917761 85.56370226 -11.29692589 88.6708666 -15 93 C-18.15314785 95.10209857 -18.86103081 95.2434761 -22.44921875 95.1953125 C-23.72055664 95.18564453 -23.72055664 95.18564453 -25.01757812 95.17578125 C-25.89865234 95.15902344 -26.77972656 95.14226562 -27.6875 95.125 C-29.02651367 95.11146484 -29.02651367 95.11146484 -30.39257812 95.09765625 C-32.59516666 95.07409915 -34.79761725 95.03822844 -37 95 C-37 90.38 -37 85.76 -37 81 C-34.8034375 80.7834375 -34.8034375 80.7834375 -32.5625 80.5625 C-29.48153302 80.46504174 -29.48153302 80.46504174 -27 79 C-26.87790076 77.58882298 -26.82229128 76.17179541 -26.79467773 74.75561523 C-26.77473251 73.85475693 -26.75478729 72.95389862 -26.73423767 72.02574158 C-26.71752518 71.04658279 -26.70081268 70.06742401 -26.68359375 69.05859375 C-26.6524221 67.56248314 -26.6524221 67.56248314 -26.62062073 66.03614807 C-26.55501363 62.83667157 -26.49618866 59.63711018 -26.4375 56.4375 C-26.39432538 54.27407961 -26.35071145 52.11066794 -26.30664062 49.94726562 C-26.19932091 44.63159836 -26.09808531 39.31584536 -26 34 C-21.05 34 -16.1 34 -11 34 C-11 40.93 -11 47.86 -11 55 C-7.37 55 -3.74 55 0 55 C0 36.85 0 18.7 0 0 Z " fill="#673E99" transform="translate(150,288)"/>
<path d="M0 0 C4.95 0 9.9 0 15 0 C15.0904302 8.77972859 15.16378996 17.55914703 15.20724869 26.33923626 C15.22810852 30.41635654 15.25639619 34.49314122 15.30175781 38.57006836 C15.34527382 42.50582482 15.36914918 46.44125882 15.37950897 50.37723732 C15.38689011 51.87755216 15.40130403 53.37784969 15.42292023 54.87802696 C15.45203262 56.98246531 15.45595302 59.08557767 15.45410156 61.19018555 C15.46298401 62.38709518 15.47186646 63.58400482 15.48101807 64.81718445 C14.90403632 68.63497552 13.67691954 70.27166717 11 73 C8.29770885 74.35114557 6.20551586 74.12283264 3.17880249 74.12025452 C1.93917252 74.12162918 0.69954254 74.12300385 -0.57765198 74.12442017 C-1.95883203 74.12088079 -3.34001183 74.11724598 -4.72119141 74.11352539 C-6.16974384 74.11324344 -7.61829641 74.1134014 -9.06684875 74.1139679 C-13.00669976 74.11425557 -16.94652051 74.10836371 -20.88636446 74.10139394 C-25.00101348 74.09515538 -29.11566314 74.0945562 -33.23031616 74.09336853 C-41.02531067 74.0902567 -48.82029121 74.0820453 -56.61527956 74.07201904 C-65.48819026 74.06085331 -74.36110163 74.05534629 -83.23401761 74.05032361 C-101.48935322 74.03986257 -119.74467498 74.02206526 -138 74 C-138 69.38 -138 64.76 -138 60 C-123.15 60 -108.3 60 -93 60 C-92.03459031 44.30104585 -92.03459031 44.30104585 -97 40 C-99.64916014 39.66911188 -102.07693956 39.51156506 -104.73046875 39.48828125 C-105.85609978 39.46135445 -105.85609978 39.46135445 -107.00447083 39.43388367 C-109.3987569 39.37974813 -111.79284331 39.34587584 -114.1875 39.3125 C-115.81187677 39.27932964 -117.43622717 39.24484024 -119.06054688 39.20898438 C-123.04022056 39.1240203 -127.0198347 39.05722535 -131 39 C-131 34.38 -131 29.76 -131 25 C-124.84361392 24.92568433 -118.68749065 24.87131916 -112.53076172 24.83520508 C-110.43761647 24.82014531 -108.34450264 24.79969329 -106.25146484 24.77368164 C-103.23787672 24.73717499 -100.22470688 24.72024527 -97.2109375 24.70703125 C-96.27945892 24.69154739 -95.34798035 24.67606354 -94.38827515 24.66011047 C-89.20492648 24.6587765 -85.38451848 24.91420932 -81 28 C-77.9592837 31.74681821 -77.63951619 34.64597219 -77.70703125 39.39453125 C-77.7215332 41.19760742 -77.7215332 41.19760742 -77.73632812 43.03710938 C-77.76146484 44.28298828 -77.78660156 45.52886719 -77.8125 46.8125 C-77.83280273 48.71032227 -77.83280273 48.71032227 -77.85351562 50.64648438 C-77.88881398 53.76450544 -77.94261915 56.88230714 -78 60 C-73.71 60 -69.42 60 -65 60 C-65.05800781 57.96457031 -65.11601562 55.92914063 -65.17578125 53.83203125 C-65.21056146 51.84955911 -65.24515937 49.86707924 -65.2746582 47.88452148 C-65.29972617 46.51192898 -65.33379082 45.13946898 -65.37719727 43.76733398 C-65.43817531 41.78949304 -65.46361009 39.81065816 -65.48828125 37.83203125 C-65.51446533 36.64327393 -65.54064941 35.4545166 -65.56762695 34.22973633 C-64.83679342 30.07137214 -63.2091997 28.641467 -60 26 C-56.82852767 24.41426384 -53.40573057 24.8158525 -49.921875 24.796875 C-48.71558441 24.78832489 -48.71558441 24.78832489 -47.48492432 24.77960205 C-45.78016476 24.77014699 -44.07538689 24.76361606 -42.37060547 24.75976562 C-39.77408456 24.75008975 -37.1783653 24.71908437 -34.58203125 24.6875 C-32.92448386 24.68096681 -31.26693081 24.67571758 -29.609375 24.671875 C-28.83728699 24.6595282 -28.06519897 24.6471814 -27.26971436 24.63446045 C-22.45897535 24.65413384 -19.15873673 25.32346051 -15 28 C-10.99744388 34.1842429 -11.65380758 40.78006507 -11.8125 47.9375 C-11.83280273 49.67870117 -11.83280273 49.67870117 -11.85351562 51.45507812 C-11.8886859 54.30387052 -11.93790713 57.15168844 -12 60 C-10.35369672 59.85957123 -8.70795821 59.71250671 -7.0625 59.5625 C-6.14597656 59.48128906 -5.22945312 59.40007812 -4.28515625 59.31640625 C-2.03840268 59.23955024 -2.03840268 59.23955024 -1 58 C-0.87669912 56.1903226 -0.82209817 54.37592163 -0.79467773 52.56225586 C-0.77473251 51.40112778 -0.75478729 50.23999969 -0.73423767 49.04368591 C-0.71752518 47.780168 -0.70081268 46.51665009 -0.68359375 45.21484375 C-0.6524221 43.28591026 -0.6524221 43.28591026 -0.62062073 41.31800842 C-0.56533824 37.89364096 -0.51595639 34.4692125 -0.46777344 31.04473877 C-0.41760335 27.55255686 -0.3618939 24.0604639 -0.30664062 20.56835938 C-0.19898358 13.71231498 -0.09806717 6.8561882 0 0 Z " fill="#673E99" transform="translate(275,366)"/>
<path d="M0 0 C4.95 0 9.9 0 15 0 C15.02505615 1.50941162 15.0501123 3.01882324 15.07592773 4.57397461 C15.16980321 10.15186674 15.27007164 15.72962852 15.37231445 21.30737305 C15.41573878 23.72563639 15.45740812 26.1439319 15.49731445 28.56225586 C15.55483603 32.02988396 15.61858187 35.49734903 15.68359375 38.96484375 C15.70030624 40.05337143 15.71701874 41.14189911 15.73423767 42.26341248 C15.75418289 43.26437454 15.77412811 44.26533661 15.79467773 45.29663086 C15.81022202 46.18265488 15.8257663 47.06867889 15.84178162 47.98155212 C15.77981325 49.99637541 15.77981325 49.99637541 17 51 C18.47652664 51.09880797 19.95767236 51.13079245 21.4375 51.1328125 C22.77941406 51.13474609 22.77941406 51.13474609 24.1484375 51.13671875 C25.55996094 51.13091797 25.55996094 51.13091797 27 51.125 C27.94101562 51.12886719 28.88203125 51.13273437 29.8515625 51.13671875 C30.74617188 51.13542969 31.64078125 51.13414062 32.5625 51.1328125 C33.80193359 51.13112061 33.80193359 51.13112061 35.06640625 51.12939453 C37.00679039 51.21264807 37.00679039 51.21264807 38 50 C38.12263388 48.43551617 38.17779522 46.86567228 38.20532227 45.29663086 C38.22526749 44.29566879 38.24521271 43.29470673 38.26576233 42.26341248 C38.28247482 41.1748848 38.29918732 40.08635712 38.31640625 38.96484375 C38.33718735 37.85645645 38.35796844 36.74806915 38.37937927 35.60609436 C38.44499623 32.04996192 38.50381596 28.49375297 38.5625 24.9375 C38.60567368 22.53319507 38.64928758 20.12889801 38.69335938 17.72460938 C38.80068997 11.81648553 38.90192279 5.90828441 39 0 C44.28 0 49.56 0 55 0 C55 11.22 55 22.44 55 34 C59.29 34 63.58 34 68 34 C68.33 22.78 68.66 11.56 69 0 C73.95 0 78.9 0 84 0 C84.04898438 2.28679687 84.09796875 4.57359375 84.1484375 6.9296875 C84.20242291 9.14052975 84.25973985 11.35126217 84.31738281 13.56201172 C84.35570301 15.10034021 84.39055056 16.63875925 84.421875 18.17724609 C84.46746059 20.38672276 84.5254634 22.59557448 84.5859375 24.8046875 C84.59748871 25.49432587 84.60903992 26.18396423 84.62094116 26.89450073 C84.64951022 30.8920154 84.64951022 30.8920154 87 34 C89.71454956 34.32752234 92.25230759 34.1308425 95 34 C96.95098085 32.04901915 96.25415108 28.35325071 96.31640625 25.68359375 C96.3475779 24.58701195 96.3475779 24.58701195 96.37937927 23.46827698 C96.44495024 21.12478344 96.50379432 18.78117461 96.5625 16.4375 C96.60567808 14.85220145 96.64929213 13.26691471 96.69335938 11.68164062 C96.80146282 7.78787702 96.90047883 3.89403042 97 0 C101.95 0 106.9 0 112 0 C112.09899561 6.03225939 112.17152907 12.06404427 112.21972656 18.09692383 C112.23982199 20.14843993 112.26710324 22.19989889 112.30175781 24.2512207 C112.35036669 27.20278025 112.37298952 30.15358148 112.390625 33.10546875 C112.41127014 34.02023483 112.43191528 34.93500092 112.45318604 35.87748718 C112.45467516 40.11882716 112.38502797 42.38054048 110.10058594 46.0559082 C105.43192568 50.37675218 99.21390215 49.45448174 93.1796875 49.3671875 C88.14269857 49.10699867 85.52165435 47.61195318 82 44 C81.06220703 45.22589844 81.06220703 45.22589844 80.10546875 46.4765625 C77.63756005 48.94186149 75.88623003 49.38756884 72.42578125 49.5234375 C70.72080185 49.49966552 69.01601873 49.44945673 67.3125 49.375 C66.44560547 49.36082031 65.57871094 49.34664063 64.68554688 49.33203125 C58.36913265 49.18456633 58.36913265 49.18456633 56 48 C55.91363281 48.88042969 55.82726562 49.76085937 55.73828125 50.66796875 C54.44732181 61.33911052 54.44732181 61.33911052 51.5625 64.25 C46.9761921 67.38211271 42.71059544 67.17541481 37.3515625 67.203125 C36.50201996 67.20882507 35.65247742 67.21452515 34.77719116 67.22039795 C32.98005415 67.22984105 31.18289987 67.23637919 29.38574219 67.24023438 C26.64226963 67.24993891 23.89954673 67.28096785 21.15625 67.3125 C19.40885861 67.31903051 17.66146187 67.32428079 15.9140625 67.328125 C15.0962027 67.3404718 14.2783429 67.3528186 13.43569946 67.36553955 C8.82497612 67.34758657 5.68523328 67.0821951 2 64 C-0.14262274 60.6652069 -0.24350903 57.95514988 -0.22705078 54.03808594 C-0.22689972 52.83714294 -0.22674866 51.63619995 -0.22659302 50.39886475 C-0.21627045 49.10708313 -0.20594788 47.81530151 -0.1953125 46.484375 C-0.19158034 45.14487927 -0.18873432 43.80538079 -0.18673706 42.46588135 C-0.17911657 38.94771735 -0.15948187 35.4297196 -0.1373291 31.91162109 C-0.11683643 28.31870777 -0.10772804 24.72576747 -0.09765625 21.1328125 C-0.07623432 14.08846733 -0.0410652 7.04426204 0 0 Z " fill="#673F9A" transform="translate(16,391)"/>
<path d="M0 0 C5.56838851 -0.09926507 11.13625604 -0.17165521 16.70532227 -0.21972656 C18.5976662 -0.23977703 20.48994868 -0.26702477 22.38208008 -0.30175781 C25.11034351 -0.35056652 27.83778415 -0.37303442 30.56640625 -0.390625 C31.82463951 -0.42159271 31.82463951 -0.42159271 33.10829163 -0.45318604 C38.90565209 -0.45537461 42.23919786 0.64774419 47 4 C50.42073445 8.56097926 51.13021089 12.60372727 51.09765625 18.203125 C51.09443359 19.1828125 51.09121094 20.1625 51.08789062 21.171875 C51.07532227 22.69554687 51.07532227 22.69554687 51.0625 24.25 C51.05798828 25.28125 51.05347656 26.3125 51.04882812 27.375 C51.03706088 29.91672573 51.02062011 32.45833319 51 35 C54.64616671 34.86183041 58.29183074 34.71318466 61.9375 34.5625 C63.49887695 34.50352539 63.49887695 34.50352539 65.09179688 34.44335938 C66.08115234 34.40146484 67.07050781 34.35957031 68.08984375 34.31640625 C69.00628662 34.27974854 69.92272949 34.24309082 70.86694336 34.20532227 C72.9820728 34.22996136 72.9820728 34.22996136 74 33 C74.15980437 30.55391002 74.25929447 28.13268942 74.31640625 25.68359375 C74.3475779 24.58701195 74.3475779 24.58701195 74.37937927 23.46827698 C74.44495024 21.12478344 74.50379432 18.78117461 74.5625 16.4375 C74.60567808 14.85220145 74.64929213 13.26691471 74.69335938 11.68164062 C74.80146282 7.78787702 74.90047883 3.89403042 75 0 C79.95 0 84.9 0 90 0 C90.12374395 6.03223203 90.21440813 12.06372285 90.2746582 18.09692383 C90.29977806 20.14848706 90.33388036 22.19996101 90.37719727 24.2512207 C90.43796002 27.20286091 90.46623492 30.1533165 90.48828125 33.10546875 C90.51408768 34.02023483 90.5398941 34.93500092 90.56648254 35.87748718 C90.56850791 40.49243285 90.52453003 42.35052504 87.53198242 46.0559082 C86.69642822 46.6974585 85.86087402 47.33900879 85 48 C84.67 48.33 84.34 48.66 84 49 C81.65847159 49.12484154 79.34492415 49.18599291 77.00170898 49.20532227 C76.27004517 49.21522186 75.53838135 49.22512146 74.7845459 49.23532104 C72.35509528 49.26702383 69.92562507 49.29172793 67.49609375 49.31640625 C65.81599913 49.33696822 64.13590977 49.35796448 62.45582581 49.37937927 C58.02532197 49.43467826 53.59477085 49.48405287 49.16418457 49.53222656 C44.64652275 49.5823846 40.12892992 49.63810033 35.61132812 49.69335938 C26.7409443 49.8010366 17.87050068 49.90246018 9 50 C9 53.3 9 56.6 9 60 C26.82 60.33 44.64 60.66 63 61 C63 65.62 63 70.24 63 75 C54.88943127 75.11313996 46.77948002 75.20479425 38.66833305 75.25906086 C34.9016364 75.28511142 31.13550943 75.320424 27.36914062 75.37719727 C23.73161376 75.43168278 20.09463345 75.46145468 16.45672989 75.47438622 C15.07164027 75.48359678 13.68657924 75.50158359 12.30172348 75.52865028 C0.09136451 75.75772198 0.09136451 75.75772198 -3.83544922 72.65698242 C-8.17092555 67.33519257 -7.2933413 61.25360212 -7.375 54.6875 C-7.43107422 52.99463867 -7.43107422 52.99463867 -7.48828125 51.26757812 C-7.58707294 41.94274009 -7.58707294 41.94274009 -4.6015625 38.26953125 C-0.34926283 34.5599425 2.86140655 34.86728314 8.2890625 34.90234375 C9.51669815 34.90446617 9.51669815 34.90446617 10.76913452 34.90663147 C13.38779325 34.9122371 16.00636704 34.92479052 18.625 34.9375 C20.39843627 34.94251428 22.17187387 34.94707731 23.9453125 34.95117188 C28.29690782 34.96220836 32.6484395 34.97947675 37 35 C36.94003987 32.22684409 36.85306688 29.45910294 36.75 26.6875 C36.73582031 25.90181641 36.72164062 25.11613281 36.70703125 24.30664062 C36.56256247 19.80659154 36.56256247 19.80659154 34.41503906 15.98901367 C31.07757079 14.62224416 28.21383508 14.55979832 24.609375 14.48828125 C23.90476135 14.47033005 23.20014771 14.45237885 22.47418213 14.43388367 C20.23284821 14.37988142 17.99172595 14.34591912 15.75 14.3125 C14.22653311 14.27931782 12.70309411 14.24482731 11.1796875 14.20898438 C7.45309631 14.12170582 3.72745931 14.06155827 0 14 C0 9.38 0 4.76 0 0 Z " fill="#663E99" transform="translate(22,308)"/>
<path d="M0 0 C5.28 0 10.56 0 16 0 C16 24.75 16 49.5 16 75 C10.72 75 5.44 75 0 75 C0 50.25 0 25.5 0 0 Z " fill="#663D99" transform="translate(303,366)"/>
<path d="M0 0 C6.7633731 -0.09181049 13.52458624 -0.17145722 20.28808594 -0.21972656 C22.58894169 -0.23984688 24.88974629 -0.26714634 27.19042969 -0.30175781 C30.49687317 -0.35025612 33.80264085 -0.37296478 37.109375 -0.390625 C38.13867126 -0.41127014 39.16796753 -0.43191528 40.22845459 -0.45318604 C41.18914856 -0.45348816 42.14984253 -0.45379028 43.13964844 -0.45410156 C44.40539703 -0.46742523 44.40539703 -0.46742523 45.69671631 -0.48101807 C48 0 48 0 52 4 C52 9.61 52 15.22 52 21 C34.84 21 17.68 21 0 21 C0 14.07 0 7.14 0 0 Z " fill="#FFFFFF" transform="translate(165,322)"/>
<path d="M0 0 C1.19496094 -0.00386719 1.19496094 -0.00386719 2.4140625 -0.0078125 C3.24679688 -0.00007813 4.07953125 0.00765625 4.9375 0.015625 C5.77023438 0.00789063 6.60296875 0.00015625 7.4609375 -0.0078125 C8.25757813 -0.00523437 9.05421875 -0.00265625 9.875 0 C10.60589844 0.00225586 11.33679688 0.00451172 12.08984375 0.00683594 C13.9375 0.265625 13.9375 0.265625 15.9375 2.265625 C16.13606972 5.13904561 16.21578946 7.89424488 16.1875 10.765625 C16.19523437 11.55066406 16.20296875 12.33570313 16.2109375 13.14453125 C16.19080787 19.01231713 16.19080787 19.01231713 13.9375 21.265625 C11.98217773 21.50854492 11.98217773 21.50854492 9.62109375 21.49609375 C8.77482422 21.49416016 7.92855469 21.49222656 7.05664062 21.49023438 C5.72922852 21.47186523 5.72922852 21.47186523 4.375 21.453125 C3.48619141 21.45248047 2.59738281 21.45183594 1.68164062 21.45117188 C-4.92228903 21.40583597 -4.92228903 21.40583597 -6.0625 20.265625 C-6.18917764 17.27544339 -6.24770838 14.31868392 -6.25 11.328125 C-6.26224609 10.49087891 -6.27449219 9.65363281 -6.28710938 8.79101562 C-6.28904297 7.98986328 -6.29097656 7.18871094 -6.29296875 6.36328125 C-6.29707764 5.62601807 -6.30118652 4.88875488 -6.30541992 4.12915039 C-5.79270537 0.1959341 -3.39582991 0.01048096 0 0 Z " fill="#FFFFFF" transform="translate(231.0625,404.734375)"/>
<path d="M0 0 C5.28 0 10.56 0 16 0 C16 4.95 16 9.9 16 15 C10.72 15 5.44 15 0 15 C0 10.05 0 5.1 0 0 Z " fill="#663D99" transform="translate(239,370)"/>
<path d="M0 0 C5.28 0 10.56 0 16 0 C16 4.95 16 9.9 16 15 C10.72 15 5.44 15 0 15 C0 10.05 0 5.1 0 0 Z " fill="#663D99" transform="translate(217,370)"/>
<path d="M0 0 C5.28 0 10.56 0 16 0 C16 4.95 16 9.9 16 15 C10.72 15 5.44 15 0 15 C0 10.05 0 5.1 0 0 Z " fill="#663D99" transform="translate(91,369)"/>
<path d="M0 0 C5.28 0 10.56 0 16 0 C16 4.95 16 9.9 16 15 C10.72 15 5.44 15 0 15 C0 10.05 0 5.1 0 0 Z " fill="#663D99" transform="translate(303,287)"/>
<path d="M0 0 C5.28 0 10.56 0 16 0 C16 4.95 16 9.9 16 15 C10.72 15 5.44 15 0 15 C0 10.05 0 5.1 0 0 Z " fill="#663D99" transform="translate(274,287)"/>
<path d="M0 0 C5.28 0 10.56 0 16 0 C16 4.95 16 9.9 16 15 C10.72 15 5.44 15 0 15 C0 10.05 0 5.1 0 0 Z " fill="#663D99" transform="translate(245,287)"/>
<path d="M0 0 C5.28 0 10.56 0 16 0 C16 4.95 16 9.9 16 15 C10.72 15 5.44 15 0 15 C0 10.05 0 5.1 0 0 Z " fill="#663D99" transform="translate(97,287)"/>
</svg>
