<?xml version="1.0" standalone="no"?>
<!DOCTYPE svg PUBLIC "-//W3C//DTD SVG 20010904//EN"
 "http://www.w3.org/TR/2001/REC-SVG-20010904/DTD/svg10.dtd">
<svg version="1.0" xmlns="http://www.w3.org/2000/svg"
 width="359.000000pt" height="523.000000pt" viewBox="0 0 359.000000 523.000000"
 preserveAspectRatio="xMidYMid meet">

<g transform="translate(0.000000,523.000000) scale(0.100000,-0.100000)"
fill="#663d99" stroke="none">

<path d="M970 2285 l0 -75 80 0 80 0 0 75 0 75 -80 0 -80 0 0 -75z"/>
<path d="M2450 2285 l0 -75 80 0 80 0 0 75 0 75 -80 0 -80 0 0 -75z"/>
<path d="M2740 2285 l0 -75 80 0 80 0 0 75 0 75 -80 0 -80 0 0 -75z"/>
<path d="M3030 2285 l0 -75 80 0 80 0 0 75 0 75 -80 0 -80 0 0 -75z"/>
<path d="M1500 2075 l0 -275 -55 0 -55 0 0 100 0 100 -75 0 -75 0 0 -218 c0
-156 -3 -221 -12 -230 -7 -7 -31 -12 -55 -12 l-43 0 0 -70 0 -70 84 0 c146 0
168 21 174 166 l4 94 565 0 c366 0 571 4 583 10 11 6 26 22 34 37 l13 27 13
-25 c22 -41 41 -48 127 -49 91 0 125 11 144 46 12 23 12 24 26 4 24 -34 68
-50 137 -50 138 0 146 15 146 285 l0 205 -69 0 -70 0 -3 -165 c-3 -183 -4
-185 -69 -185 -64 0 -69 15 -69 193 l0 157 -75 0 -75 0 0 -163 c0 -113 -4
-167 -12 -175 -7 -7 -33 -12 -59 -12 -76 0 -79 6 -79 191 l0 159 -75 0 -75 0
0 -165 c0 -187 1 -185 -83 -185 l-45 0 -4 145 c-3 143 -3 145 -31 172 l-27 28
-305 3 -305 3 0 100 0 99 -75 0 -75 0 0 -275z m656 -89 c9 -13 14 -47 14 -103
l0 -83 -260 0 -260 0 0 105 0 106 246 -3 c230 -3 247 -4 260 -22z"/>
<path d="M220 2081 l0 -70 171 -3 c205 -4 199 0 199 -125 l0 -83 -170 0 c-199
0 -232 -8 -255 -64 -20 -47 -20 -224 -1 -271 27 -63 40 -65 381 -65 l305 0 0
70 0 70 -272 2 -273 3 0 55 0 55 375 5 c270 4 381 8 396 17 37 21 44 65 44
274 l0 199 -75 0 -75 0 0 -163 c0 -113 -4 -167 -12 -175 -8 -8 -49 -12 -119
-12 l-107 0 -3 118 c-4 128 -17 165 -72 206 -26 19 -43 21 -233 24 l-204 3 0
-70z"/>
<path d="M2750 1282 c0 -211 -3 -291 -12 -300 -7 -7 -36 -12 -65 -12 l-53 0 0
141 0 141 -28 28 c-37 37 -80 43 -275 38 -156 -3 -157 -3 -184 -31 -28 -27
-28 -29 -31 -172 l-3 -145 -64 0 -63 0 -4 138 c-5 213 -4 212 -320 212 l-208
0 0 -69 0 -70 175 -3 c126 -2 178 -7 187 -16 8 -8 14 -47 16 -102 l4 -90 -225
0 -224 0 -7 -46 c-3 -26 -6 -57 -6 -70 l0 -24 730 0 c544 0 736 3 755 12 53
24 55 39 55 398 l0 330 -75 0 -75 0 0 -288z m-292 -114 c8 -8 12 -45 12 -100
0 -103 4 -101 -130 -96 l-85 3 -3 90 c-2 76 0 92 14 102 23 17 176 17 192 1z"/>
<path d="M3030 1195 l0 -375 80 0 80 0 0 375 0 375 -80 0 -80 0 0 -375z"/>
<path d="M910 1465 l0 -75 80 0 80 0 0 75 0 75 -80 0 -80 0 0 -75z"/>
<path d="M2170 1455 l0 -75 80 0 80 0 0 75 0 75 -80 0 -80 0 0 -75z"/>
<path d="M2390 1455 l0 -75 80 0 80 0 0 75 0 75 -80 0 -80 0 0 -75z"/>
<path d="M160 1020 l0 -300 29 -32 29 -33 164 -3 c191 -4 259 2 290 28 20 15
23 29 26 99 4 80 4 81 25 66 15 -11 48 -15 111 -15 88 0 89 0 121 35 25 26 34
31 39 20 12 -33 69 -55 139 -55 82 0 121 17 136 61 7 19 11 111 11 230 l0 199
-75 0 -75 0 0 -163 c0 -113 -4 -167 -12 -175 -17 -17 -84 -15 -102 4 -13 13
-16 43 -16 175 l0 159 -75 0 -75 0 0 -163 c0 -113 -4 -167 -12 -175 -7 -7 -33
-12 -59 -12 -76 0 -79 6 -79 191 l0 159 -75 0 -75 0 -2 -257 -3 -258 -104 -3
c-67 -2 -108 1 -117 9 -11 9 -14 60 -14 260 l0 249 -75 0 -75 0 0 -300z"/>
</g>
</svg>
