<?xml version="1.0" standalone="no"?>
<!DOCTYPE svg PUBLIC "-//W3C//DTD SVG 20010904//EN"
 "http://www.w3.org/TR/2001/REC-SVG-20010904/DTD/svg10.dtd">
<svg version="1.0" xmlns="http://www.w3.org/2000/svg"
 width="244.000000pt" height="250.000000pt" viewBox="0 0 244.000000 250.000000"
 preserveAspectRatio="xMidYMid meet">
<g transform="translate(0.000000,250.000000) scale(0.100000,-0.100000)"
fill="#000000" stroke="none">
<path d="M0 1718 l0 -752 34 70 c24 51 60 98 126 169 90 96 129 157 130 203 0
20 -5 22 -45 22 -114 0 -113 116 1 130 l49 5 -54 55 c-63 65 -81 102 -81 168
0 65 20 111 69 155 121 109 309 47 342 -113 17 -80 1 -126 -66 -199 -30 -32
-55 -61 -55 -64 0 -2 20 -7 45 -9 57 -7 75 -22 75 -63 0 -41 -20 -58 -79 -65
-44 -5 -46 -6 -43 -35 5 -48 44 -104 136 -199 59 -60 96 -108 118 -154 l33
-66 3 -213 4 -213 38 0 38 0 4 198 c3 193 4 198 31 255 28 56 61 89 187 189
66 53 128 139 137 191 l6 37 -69 -30 c-80 -36 -108 -60 -136 -115 -25 -50 -57
-85 -77 -85 -19 0 -101 30 -118 43 -22 16 -15 77 37 327 53 254 57 302 38 375
-7 24 -9 47 -6 51 4 3 35 -3 70 -15 35 -11 106 -27 159 -36 230 -36 347 -102
417 -233 63 -117 65 -138 69 -670 l5 -482 39 0 39 0 0 193 c0 263 15 310 141
457 46 53 56 70 42 70 -32 0 -63 29 -63 59 0 36 28 61 68 61 27 0 32 4 32 23
0 13 -12 34 -26 48 -48 45 -98 121 -110 170 -16 60 -4 111 36 151 34 34 98 38
145 10 30 -18 30 -18 52 8 l21 26 -27 12 c-32 14 -61 60 -61 97 0 58 58 115
118 115 41 0 94 -39 110 -81 12 -31 11 -41 -2 -72 -8 -20 -28 -45 -44 -55
l-30 -17 22 -26 c22 -26 23 -26 45 -8 28 23 91 25 130 4 35 -17 61 -70 61
-122 0 -51 -38 -125 -95 -187 -55 -60 -60 -96 -15 -96 34 0 70 -31 70 -60 0
-28 -35 -60 -66 -60 -25 0 -22 -5 43 -73 64 -67 133 -179 133 -214 0 -7 5 -13
10 -13 7 0 10 257 10 750 l0 750 -375 0 -375 0 0 -140 0 -140 -40 0 -40 0 0
140 0 140 -375 0 -375 0 0 -140 0 -140 -40 0 -40 0 0 140 0 140 -370 0 -370 0
0 -752z"/>
<path d="M1000 352 c0 -91 -3 -111 -16 -116 -30 -11 -34 -6 -34 48 0 72 -19
86 -112 86 -81 0 -98 -17 -98 -93 0 -44 -2 -48 -22 -45 -20 3 -23 10 -26 58
-2 30 -8 60 -14 67 -7 9 -41 13 -109 13 l-99 0 0 -30 0 -30 80 0 80 0 0 -40 0
-40 -85 0 c-84 0 -85 0 -85 -25 l0 -25 290 0 290 0 11 26 c5 15 8 77 7 138
l-3 111 -27 3 -28 3 0 -109z"/>
<path d="M1110 320 l0 -140 30 0 30 0 0 140 0 140 -30 0 -30 0 0 -140z"/>
<path d="M1750 350 l0 -110 -25 0 c-22 0 -25 4 -25 40 0 38 -2 40 -30 40 l-30
0 0 -90 c0 -83 -1 -90 -20 -90 -16 0 -20 -7 -20 -31 0 -31 0 -32 42 -25 23 4
44 9 47 12 3 2 7 23 10 47 l6 42 219 3 c132 1 224 7 232 13 8 7 14 7 19 -1 8
-13 88 -13 102 1 8 8 13 8 17 0 4 -6 25 -11 47 -11 34 0 41 4 50 27 5 14 9 56
7 92 -3 63 -4 66 -30 69 -27 3 -27 3 -30 -65 -3 -60 -5 -68 -23 -68 -17 0 -21
8 -25 65 -5 62 -6 65 -32 68 -27 3 -27 3 -30 -65 -3 -65 -4 -68 -28 -68 -24 0
-25 3 -28 68 -3 67 -3 67 -32 67 -29 0 -29 0 -32 -67 -3 -62 -5 -68 -25 -71
-21 -3 -23 0 -23 52 0 78 -14 86 -152 86 l-108 0 0 40 c0 36 -2 40 -25 40
l-25 0 0 -110z m248 -72 l3 -38 -100 0 -101 0 0 40 0 41 98 -3 97 -3 3 -37z"/>
<path d="M1250 352 c0 -31 0 -31 63 -34 l62 -3 3 -37 3 -38 -70 0 c-83 0 -94
-11 -89 -88 4 -62 26 -73 133 -70 79 3 80 3 83 31 l3 27 -81 0 c-79 0 -81 1
-78 23 3 21 6 22 147 25 86 1 150 7 158 14 9 7 13 37 13 94 l0 84 -30 0 c-29
0 -29 0 -32 -67 l-3 -68 -46 -3 -46 -3 -5 51 c-7 72 -23 84 -113 88 l-75 4 0
-30z"/>
<path d="M0 246 c0 -143 -5 -136 103 -136 82 0 93 5 102 43 6 24 12 27 49 27
23 0 47 5 53 11 8 8 13 8 17 0 4 -6 25 -11 47 -11 49 0 59 20 59 121 l0 69
-30 0 -30 0 0 -64 c0 -67 -7 -80 -34 -70 -12 5 -16 21 -16 70 l0 64 -30 0 -30
0 0 -64 c0 -63 -8 -79 -37 -69 -9 3 -13 26 -13 69 l0 64 -30 0 -29 0 -3 -97
-3 -98 -45 0 -45 0 -3 98 c-3 96 -3 97 -27 97 l-25 0 0 -124z"/>
</g>
</svg>
