<?xml version="1.0" standalone="no"?>
<!DOCTYPE svg PUBLIC "-//W3C//DTD SVG 20010904//EN"
        "http://www.w3.org/TR/2001/REC-SVG-20010904/DTD/svg10.dtd">
<svg version="1.0" xmlns="http://www.w3.org/2000/svg"
     width="153.000000pt" height="206.000000pt" viewBox="0 0 153.000000 206.000000"
     preserveAspectRatio="xMidYMid meet">

    <g transform="translate(0.000000,206.000000) scale(0.100000,-0.100000)"
       fill="#4e3c96" stroke="none">
        <path d="M645 1902 c-49 -23 -79 -55 -100 -104 -28 -69 -13 -162 35 -214 l20
-20 -130 -155 c-141 -168 -173 -223 -197 -332 -35 -169 37 -373 168 -477 266
-210 646 -89 744 238 47 156 24 279 -85 442 -8 12 -35 -10 -142 -117 l-133
-132 -60 55 -60 54 142 141 142 141 -58 70 -59 70 31 44 c64 91 42 213 -51
279 -55 38 -146 46 -207 17z"/>
        <path d="M155 313 c-85 -109 -155 -205 -155 -215 0 -17 36 -18 745 -18 410 0
745 3 745 6 0 7 -320 413 -331 420 -5 3 -30 -13 -57 -34 -102 -85 -220 -126
-367 -126 -75 0 -118 5 -170 21 -73 23 -172 77 -216 119 -14 13 -28 24 -32 24
-3 0 -76 -89 -162 -197z"/>
    </g>
</svg>
