<?xml version="1.0" encoding="UTF-8"?>
<svg version="1.1" xmlns="http://www.w3.org/2000/svg" width="305" height="403">
<!--<path d="M0 0 C100.65 0 201.3 0 305 0 C305 132.99 305 265.98 305 403 C204.35 403 103.7 403 0 403 C0 270.01 0 137.02 0 0 Z " fill="#FEFEFD" transform="translate(0,0)"/>-->
<path d="M0 0 C27.72 0 55.44 0 84 0 C84 10.23 84 20.46 84 31 C86.97 31 89.94 31 93 31 C93 20.77 93 10.54 93 0 C120.72 0 148.44 0 177 0 C177 10.23 177 20.46 177 31 C179.97 31 182.94 31 186 31 C186 20.77 186 10.54 186 0 C213.72 0 241.44 0 270 0 C270 55.44 270 110.88 270 168 C269.34 168 268.68 168 268 168 C267.5978125 166.76636719 267.5978125 166.76636719 267.1875 165.5078125 C264.31465339 157.32397973 260.76959056 151.42522585 255 145 C254.01 143.83210938 254.01 143.83210938 253 142.640625 C249.92912064 138.7955193 249.92912064 138.7955193 246 136 C246 135.34 246 134.68 246 134 C247.11375 133.71125 248.2275 133.4225 249.375 133.125 C253.00291092 132.30758671 253.00291092 132.30758671 255 130 C255.34819167 127.28410499 255.37055727 125.64847522 254 123.25 C250.83384111 121.27115069 247.69706448 121.30303807 244 121 C244 119.02 244 117.04 244 115 C244.61875 114.7525 245.2375 114.505 245.875 114.25 C248.43581603 112.74363763 248.72163233 111.62801978 250 109 C250.95447958 107.71052202 251.93498947 106.44000044 252.9375 105.1875 C258.42155053 97.8799021 260.26661446 91.11465703 259 82 C256.95051814 77.92990221 255.25084008 75.79479915 251 74 C244.54642102 73.27137012 241.35938791 74.42707473 236 78 C234.68 76.02 233.36 74.04 232 72 C232.94875 71.2575 233.8975 70.515 234.875 69.75 C238.63221911 66.57763103 239.82206991 64.60137078 240.375 59.625 C239.92831385 55.30703393 238.7684289 53.30673452 236 50 C231.80271906 47.42718971 227.7970332 47.31827258 223 48 C219.81499709 49.62145603 217.77888904 50.97328264 215.625 53.8125 C214.27941005 58.52206483 214.38200207 61.8743609 216.75 66.1875 C218.71433323 68.64291654 220.69786128 70.86229976 223 73 C222.01 74.32 221.02 75.64 220 77 C219.443125 76.77183594 218.88625 76.54367188 218.3125 76.30859375 C212.66510963 74.18128285 208.88779069 73.45566146 203 75 C200.04894006 76.84120479 197.58311499 78.83377003 196 82 C194.80720172 91.27060938 196.73767562 98.31381711 202 106 C204.31403452 108.4494902 206.66457965 110.69791357 209.2421875 112.8671875 C211.55213785 115.66992726 211.33217686 117.46684609 211 121 C209.741875 121.103125 208.48375 121.20625 207.1875 121.3125 C204.63475861 121.64232322 203.20197994 121.87376254 201 123.25 C199.60596778 125.68955638 199.58538306 127.23588708 200 130 C201.03959519 131.87359395 201.03959519 131.87359395 203 133 C206.10839021 133.7269226 206.10839021 133.7269226 209 134 C209 134.66 209 135.32 209 136 C208.34 136 207.68 136 207 136 C206.75636719 136.56847656 206.51273438 137.13695312 206.26171875 137.72265625 C204.77324509 140.40928208 202.9614433 142.24417232 200.8125 144.4375 C190.75588343 155.41867648 186.76465698 167.03450993 186.5859375 181.625 C186.56657135 182.61250244 186.5472052 183.60000488 186.5272522 184.61743164 C186.46788341 187.74486893 186.42124287 190.87234389 186.375 194 C186.33678088 196.13152571 186.2977269 198.26303662 186.2578125 200.39453125 C186.16221729 205.59623278 186.0780299 210.79800653 186 216 C183.03 216 180.06 216 177 216 C176.99453156 214.06466148 176.99453156 214.06466148 176.98895264 212.09022522 C176.95183654 199.86625621 176.89388404 187.64253526 176.81609726 175.41875553 C176.77677097 169.13601272 176.74451002 162.85340697 176.72900391 156.57055664 C176.71373912 150.49492431 176.67912113 144.41966917 176.63169098 138.34420586 C176.61697784 136.03889706 176.60896485 133.73353438 176.60811615 131.42817879 C176.59403273 112.33575286 175.58339457 93.58190685 163.6875 77.625 C150.18327838 64.43483005 130.99053471 61.07388375 113.04248047 58.15063477 C107.08120563 57.13015479 101.5710977 55.37042386 96 53 C96.2165625 53.67804688 96.433125 54.35609375 96.65625 55.0546875 C96.9346875 55.98539063 97.213125 56.91609375 97.5 57.875 C97.7784375 58.77992187 98.056875 59.68484375 98.34375 60.6171875 C100.35107058 70.96444713 97.88234361 80.80923619 95.75 90.9375 C95.42736489 92.5094104 95.10567368 94.08151481 94.78491211 95.65380859 C93.44852349 102.17856688 92.07749186 108.69492966 90.64453125 115.19921875 C90.45729492 116.05588135 90.27005859 116.91254395 90.07714844 117.79516602 C89.75011447 119.27566182 89.41449633 120.75430752 89.06738281 122.23022461 C88.00356739 126.99784727 87.14797664 132.13898252 88 137 C90.02522258 139.46139179 91.8990084 140.59321515 94.875 141.6875 C95.53242187 141.93886719 96.18984375 142.19023437 96.8671875 142.44921875 C99.43693161 143.11283399 101.35904589 143.36456188 104 143 C105.77066859 141.29198815 105.77066859 141.29198815 107.0625 138.9375 C107.56910156 138.11765625 108.07570313 137.2978125 108.59765625 136.453125 C109.78000484 134.38483833 110.89471901 132.29716495 112 130.1875 C115.57520136 124.48952284 121.35883589 122.21172895 127.375 119.75 C128.01566406 119.481875 128.65632812 119.21375 129.31640625 118.9375 C130.8752635 118.28603727 132.43730535 117.64220328 134 117 C131.45700692 131.56441494 123.62645159 139.98791142 111.875 148.5625 C103.70747005 154.54786546 96.264249 161.67639871 94.47436523 172.04492188 C93.93721288 176.52349526 93.77336582 180.92781476 93.68359375 185.43359375 C93.6524221 186.7504995 93.6524221 186.7504995 93.62062073 188.0940094 C93.55568055 190.87509985 93.49650073 193.65627785 93.4375 196.4375 C93.39426186 198.33269104 93.35064595 200.2278735 93.30664062 202.12304688 C93.20005678 206.74861013 93.09863592 211.37426071 93 216 C90.03 216 87.06 216 84 216 C83.9906543 214.73518799 83.98130859 213.47037598 83.97167969 212.16723633 C83.93141583 207.41624394 83.8655607 202.66587464 83.79248047 197.9152832 C83.76447994 195.87011803 83.74316284 193.82484885 83.72900391 191.77954102 C83.58354526 171.94382989 81.24967207 158.15425931 66.75341797 143.65991211 C65.53221118 142.45886301 64.30245993 141.26641927 63.06298828 140.08422852 C56.74207284 134.00993585 51.21472223 127.79750034 50.875 118.625 C50.91625 117.75875 50.9575 116.8925 51 116 C52.03060547 115.94392578 52.03060547 115.94392578 53.08203125 115.88671875 C53.98308594 115.82097656 54.88414063 115.75523437 55.8125 115.6875 C56.70582031 115.62949219 57.59914062 115.57148438 58.51953125 115.51171875 C61.37234551 114.92318541 62.35262868 114.38435323 64 112 C64.3606631 109.94636394 64.3606631 109.94636394 64.1875 107.8125 C64.125625 106.554375 64.06375 105.29625 64 104 C59.71 103.34 55.42 102.68 51 102 C52.084449 97.66220399 52.4820613 97.29571566 55.8125 94.75 C60.9883854 90.44603795 64.30586726 84.849013 65.2734375 78.08984375 C65.61607655 70.82853151 63.27890423 64.97069616 58.6484375 59.36328125 C53.87368667 54.92196274 47.75735722 53.29024813 41.4375 52.625 C34.31163998 53.40236655 29.11999189 55.88000811 24 61 C19.71461839 67.0926352 18.28321646 72.58872863 19 80 C20.65915284 87.8543382 25.85504369 92.9356836 31.4375 98.375 C33 100 33 100 33 102 C31.96939453 102.05607422 31.96939453 102.05607422 30.91796875 102.11328125 C30.01691406 102.17902344 29.11585937 102.24476562 28.1875 102.3125 C27.29417969 102.37050781 26.40085937 102.42851563 25.48046875 102.48828125 C22.65033692 103.07213522 21.69317573 103.69112401 20 106 C19.4789135 109.49872367 19.55866356 111.29002398 21.4375 114.3125 C25.11078108 116.73148998 28.67816914 116.81530637 33 117 C33.96741671 123.2191074 31.84415466 126.85091395 28.39453125 131.97265625 C25.16023751 136.06168993 21.51688358 139.60797362 17.77856445 143.23071289 C9.68699626 151.12764258 4.94702829 159.413961 1 170 C0.67 170 0.34 170 0 170 C0 113.9 0 57.8 0 0 Z " fill="#F0C231" transform="translate(13,13)"/>
<path d="M0 0 C4.62 0 9.24 0 14 0 C14 5.94 14 11.88 14 18 C15.51875732 17.98952637 17.03751465 17.97905273 18.60229492 17.96826172 C24.23980347 17.93204761 29.87730175 17.90909425 35.51489258 17.89013672 C37.9543633 17.8800824 40.39382197 17.86643708 42.83325195 17.84912109 C46.34068779 17.82484818 49.84796421 17.81351109 53.35546875 17.8046875 C54.44522507 17.79436493 55.53498138 17.78404236 56.65776062 17.77340698 C58.18878166 17.77318039 58.18878166 17.77318039 59.75073242 17.77294922 C61.09309212 17.76628738 61.09309212 17.76628738 62.46257019 17.75949097 C65.32424159 18.03073308 67.42678953 18.72981169 70 20 C72.82876851 23.57320154 73.36510358 26.24187665 73.29296875 30.73828125 C73.28330078 31.80498047 73.27363281 32.87167969 73.26367188 33.97070312 C73.23853516 35.07349609 73.21339844 36.17628906 73.1875 37.3125 C73.16719727 38.99569336 73.16719727 38.99569336 73.14648438 40.71289062 C73.1112138 43.47575229 73.06192235 46.23762829 73 49 C74.64630328 48.85957123 76.29204179 48.71250671 77.9375 48.5625 C78.85402344 48.48128906 79.77054687 48.40007812 80.71484375 48.31640625 C82.96159732 48.23955024 82.96159732 48.23955024 84 47 C84.15858842 44.85613343 84.25129298 42.70733162 84.31640625 40.55859375 C84.35830078 39.25341797 84.40019531 37.94824219 84.44335938 36.60351562 C84.48317608 35.2148467 84.52288825 33.82617478 84.5625 32.4375 C84.60567989 31.04490817 84.649294 29.65232972 84.69335938 28.25976562 C84.79985806 24.83997451 84.90047056 21.42000104 85 18 C89.62 18 94.24 18 99 18 C99.33 27.9 99.66 37.8 100 48 C103.3 48 106.6 48 110 48 C110.33 38.1 110.66 28.2 111 18 C115.62 18 120.24 18 125 18 C125.06058594 20.08183594 125.12117187 22.16367187 125.18359375 24.30859375 C125.24615407 26.31747502 125.30874775 28.32635541 125.37231445 30.33520508 C125.41571434 31.73489199 125.45738564 33.13463359 125.49731445 34.53442383 C125.55489445 36.54261495 125.61914 38.55061149 125.68359375 40.55859375 C125.72025146 41.76829834 125.75690918 42.97800293 125.79467773 44.22436523 C125.68938266 46.90705456 125.68938266 46.90705456 127 48 C128.87321948 48.16053815 128.87321948 48.16053815 131 48.125 C131.721875 48.12757813 132.44375 48.13015625 133.1875 48.1328125 C135.02089415 48.19695276 135.02089415 48.19695276 136 47 C136.15858842 44.85613343 136.25129298 42.70733162 136.31640625 40.55859375 C136.35830078 39.25341797 136.40019531 37.94824219 136.44335938 36.60351562 C136.48317608 35.2148467 136.52288825 33.82617478 136.5625 32.4375 C136.60567989 31.04490817 136.649294 29.65232972 136.69335938 28.25976562 C136.79985806 24.83997451 136.90047056 21.42000104 137 18 C141.29 18 145.58 18 150 18 C150.09906509 23.32017615 150.17156072 28.63981247 150.21972656 33.96069336 C150.23981053 35.7697078 150.26708341 37.57865757 150.30175781 39.38745117 C150.35041892 41.99153621 150.37300051 44.59476115 150.390625 47.19921875 C150.41127014 48.00461594 150.43191528 48.81001312 150.45318604 49.63981628 C150.45477127 53.6296673 150.29650486 55.53363368 148.10058594 58.98754883 C143.92920227 62.98391279 139.76901827 62.26340056 134.21875 62.2265625 C130.50947405 61.96547269 128.02354064 61.18366824 125 59 C124.67 58.34 124.34 57.68 124 57 C123.18917969 57.8146875 122.37835938 58.629375 121.54296875 59.46875 C117.63944605 62.71538034 114.22684618 62.68656707 109.3125 62.5 C108.55388672 62.50257813 107.79527344 62.50515625 107.01367188 62.5078125 C103.887352 62.45262592 101.59151371 62.41188576 98.98046875 60.59375 C98 59 98 59 98 57 C97.401875 57.639375 96.80375 58.27875 96.1875 58.9375 C93.16888255 61.78362503 90.79294001 62.12520862 86.80488586 62.12025452 C85.52395554 62.12231651 85.52395554 62.12231651 84.21714783 62.12442017 C83.28350906 62.12082489 82.3498703 62.11722961 81.38793945 62.11352539 C79.90961639 62.11374443 79.90961639 62.11374443 78.40142822 62.1139679 C75.1386903 62.11327035 71.87600922 62.10548527 68.61328125 62.09765625 C66.3531243 62.09579151 64.09296695 62.09436787 61.83280945 62.09336853 C55.8799427 62.08954776 49.92710029 62.07972119 43.97424316 62.06866455 C37.90145192 62.058441 31.82865674 62.05386888 25.75585938 62.04882812 C13.83722888 62.03809856 1.91861646 62.02102738 -10 62 C-9.94199219 63.24136719 -9.88398437 64.48273438 -9.82421875 65.76171875 C-9.77730762 67.40360814 -9.73180891 69.04553832 -9.6875 70.6875 C-9.64560547 71.50412109 -9.60371094 72.32074219 -9.56054688 73.16210938 C-9.47014852 77.62778816 -9.5377588 79.40849586 -12.38078308 83.04655457 C-15.09537786 85.07113403 -16.11654387 85.60731857 -19.42578125 85.48828125 C-20.22177734 85.47216797 -21.01777344 85.45605469 -21.83789062 85.43945312 C-22.65451172 85.39755859 -23.47113281 85.35566406 -24.3125 85.3125 C-25.14845703 85.28994141 -25.98441406 85.26738281 -26.84570312 85.24414062 C-28.89791149 85.1855061 -30.94919202 85.09583215 -33 85 C-33 80.71 -33 76.42 -33 72 C-28.545 71.505 -28.545 71.505 -24 71 C-23.67 57.8 -23.34 44.6 -23 31 C-18.71 31 -14.42 31 -10 31 C-10 36.94 -10 42.88 -10 49 C-6.7 49 -3.4 49 0 49 C0 32.83 0 16.66 0 0 Z " fill="#F0C232" transform="translate(133,236)"/>
<path d="M0 0 C4.29 0 8.58 0 13 0 C13.09046629 7.73660728 13.16381095 15.47301686 13.20724869 23.21002483 C13.2280997 26.80289593 13.25637049 30.39538555 13.30175781 33.98803711 C13.34530641 37.45696052 13.36915581 40.92551765 13.37950897 44.39469337 C13.3904672 46.35844133 13.42167925 48.32204247 13.45318604 50.28556824 C13.45348816 51.4864357 13.45379028 52.68730316 13.45410156 53.92456055 C13.46298401 54.97935104 13.47186646 56.03414154 13.48101807 57.12089539 C12.87453912 60.75093853 11.56607291 62.40580003 9 65 C5.94679618 66.01773461 3.89899287 66.12333558 0.70393372 66.12025452 C-0.3940303 66.12162918 -1.49199432 66.12300385 -2.62322998 66.12442017 C-3.82804016 66.12082489 -5.03285034 66.11722961 -6.27416992 66.11352539 C-7.54257217 66.11367142 -8.81097443 66.11381744 -10.11781311 66.1139679 C-13.59687748 66.11425511 -17.07590746 66.10837057 -20.55496383 66.10139394 C-24.19047481 66.09514785 -27.82598656 66.0945556 -31.46150208 66.09336853 C-38.34627382 66.09025893 -45.23102972 66.08205052 -52.11579448 66.07201904 C-59.95368129 66.06084641 -67.79156886 66.05534455 -75.62946165 66.05032361 C-91.75298398 66.03986761 -107.87648934 66.02207418 -124 66 C-124 61.71 -124 57.42 -124 53 C-110.8 53 -97.6 53 -84 53 C-83.16067097 43.66996836 -83.16067097 43.66996836 -86 36 C-88.28988781 35.84111908 -90.58443441 35.74861927 -92.87890625 35.68359375 C-93.5655687 35.66281265 -94.25223114 35.64203156 -94.95970154 35.62062073 C-97.16052935 35.55505857 -99.36147975 35.49620985 -101.5625 35.4375 C-103.05144514 35.39432108 -104.54037773 35.350707 -106.02929688 35.30664062 C-109.68606553 35.1993707 -113.34297318 35.09812228 -117 35 C-117 30.71 -117 26.42 -117 22 C-111.3949675 21.92572332 -105.79022289 21.87133792 -100.18481445 21.83520508 C-98.27883919 21.82013872 -96.37289848 21.79968176 -94.46704102 21.77368164 C-91.72403424 21.73720358 -88.98148672 21.72025208 -86.23828125 21.70703125 C-84.96456413 21.68380547 -84.96456413 21.68380547 -83.66511536 21.66011047 C-78.9783818 21.65878375 -75.73532384 21.84098581 -72 25 C-69.77645588 28.13784409 -69.76447575 30.86072089 -69.8046875 34.640625 C-69.81113281 35.71054687 -69.81757813 36.78046875 -69.82421875 37.8828125 C-69.84097656 38.99398437 -69.85773438 40.10515625 -69.875 41.25 C-69.88402344 42.37664062 -69.89304688 43.50328125 -69.90234375 44.6640625 C-69.92589237 47.44279922 -69.96176275 50.22142659 -70 53 C-66.37 53 -62.74 53 -59 53 C-59.05220703 50.59654297 -59.05220703 50.59654297 -59.10546875 48.14453125 C-59.13361097 46.03386466 -59.16091067 43.92318672 -59.1875 41.8125 C-59.21263672 40.75740234 -59.23777344 39.70230469 -59.26367188 38.61523438 C-59.27333984 37.59365234 -59.28300781 36.57207031 -59.29296875 35.51953125 C-59.3086792 34.58214111 -59.32438965 33.64475098 -59.34057617 32.67895508 C-58.82278214 28.60601319 -57.0904008 26.12851699 -54.27490234 23.21459961 C-51.09815805 21.51849499 -48.11728343 21.55128113 -44.6015625 21.56640625 C-43.88898285 21.5611644 -43.1764032 21.55592255 -42.44223022 21.55052185 C-40.93773701 21.54411209 -39.43319362 21.54542517 -37.92871094 21.55395508 C-35.63905431 21.56244787 -33.35190921 21.53372311 -31.0625 21.50195312 C-29.59635491 21.50034035 -28.13020544 21.50092011 -26.6640625 21.50390625 C-25.98574371 21.49267227 -25.30742493 21.48143829 -24.60855103 21.46986389 C-19.65027092 21.54171911 -16.82128999 22.9027401 -13 26 C-11.6691089 28.66178221 -11.88731007 30.68739396 -11.90234375 33.6640625 C-11.90717773 35.34628906 -11.90717773 35.34628906 -11.91210938 37.0625 C-11.92467773 38.8259375 -11.92467773 38.8259375 -11.9375 40.625 C-11.94201172 41.80835938 -11.94652344 42.99171875 -11.95117188 44.2109375 C-11.96298533 47.14067507 -11.97945742 50.07031272 -12 53 C-10.35369672 52.85957123 -8.70795821 52.71250671 -7.0625 52.5625 C-6.14597656 52.48128906 -5.22945313 52.40007812 -4.28515625 52.31640625 C-2.03840268 52.23955024 -2.03840268 52.23955024 -1 51 C-0.87727151 49.40486107 -0.82218957 47.80445068 -0.79467773 46.20483398 C-0.77473251 45.18385117 -0.75478729 44.16286835 -0.73423767 43.11094666 C-0.71752518 42.0005452 -0.70081268 40.89014374 -0.68359375 39.74609375 C-0.6524221 38.05021873 -0.6524221 38.05021873 -0.62062073 36.32008362 C-0.55500203 32.69262015 -0.49618323 29.06508167 -0.4375 25.4375 C-0.39432649 22.98501814 -0.3507126 20.532544 -0.30664062 18.08007812 C-0.19930812 12.05346316 -0.09807578 6.02677243 0 0 Z " fill="#F0C231" transform="translate(245,306)"/>
<path d="M0 0 C4.29 0 8.58 0 13 0 C13.33 15.18 13.66 30.36 14 46 C23.9 45.505 23.9 45.505 34 45 C34.33 30.15 34.66 15.3 35 0 C39.29 0 43.58 0 48 0 C48.06058594 2.08183594 48.12117188 4.16367187 48.18359375 6.30859375 C48.24615407 8.31747502 48.30874775 10.32635541 48.37231445 12.33520508 C48.41571434 13.73489199 48.45738564 15.13463359 48.49731445 16.53442383 C48.55489445 18.54261495 48.61914 20.55061149 48.68359375 22.55859375 C48.73858032 24.37315063 48.73858032 24.37315063 48.79467773 26.22436523 C48.68938266 28.90705456 48.68938266 28.90705456 50 30 C53.3 30.33 56.6 30.66 60 31 C60.33 20.77 60.66 10.54 61 0 C65.62 0 70.24 0 75 0 C75.06058594 2.08183594 75.12117188 4.16367187 75.18359375 6.30859375 C75.24615407 8.31747502 75.30874775 10.32635541 75.37231445 12.33520508 C75.41571434 13.73489199 75.45738564 15.13463359 75.49731445 16.53442383 C75.55489445 18.54261495 75.61914 20.55061149 75.68359375 22.55859375 C75.72025146 23.76829834 75.75690918 24.97800293 75.79467773 26.22436523 C75.68938266 28.90705456 75.68938266 28.90705456 77 30 C79.64 30 82.28 30 85 30 C85.33 20.1 85.66 10.2 86 0 C90.62 0 95.24 0 100 0 C100.09920549 5.15944873 100.17162646 10.31833689 100.21972656 15.47851562 C100.2397871 17.23219479 100.26704251 18.98580753 100.30175781 20.73925781 C100.35052302 23.26644318 100.37302392 25.79274091 100.390625 28.3203125 C100.41127014 29.09867462 100.43191528 29.87703674 100.45318604 30.6789856 C100.45531932 35.90631589 99.45923427 38.85004461 96 43 C91.61145759 45.19427121 85.78974774 44.33755209 81 44 C77.43891533 42.67213792 75.64486434 41.64486434 73 39 C72.566875 39.639375 72.13375 40.27875 71.6875 40.9375 C70 43 70 43 67 44 C64.30001293 44.12182523 61.63721229 44.18511299 58.9375 44.1875 C58.20466797 44.19974609 57.47183594 44.21199219 56.71679688 44.22460938 C54.80973493 44.22986299 52.90315114 44.12218272 51 44 C50.34 43.34 49.68 42.68 49 42 C48.98582031 42.80824219 48.97164062 43.61648438 48.95703125 44.44921875 C48.5188928 54.26588829 48.5188928 54.26588829 45.5625 57.1875 C41.39099628 60.1380758 38.30751889 60.18850762 33.32421875 60.23828125 C32.56204544 60.246353 31.79987213 60.25442474 31.01460266 60.26274109 C29.39981357 60.27657975 27.78499526 60.28730289 26.17016602 60.29516602 C23.70727667 60.31236192 21.24573594 60.35624507 18.78320312 60.40039062 C17.21355153 60.41051935 15.64388853 60.41903489 14.07421875 60.42578125 C13.34071701 60.44328934 12.60721527 60.46079742 11.85148621 60.47883606 C8.18064249 60.46335918 6.17090605 60.1104628 3.05786133 58.09838867 C-0.06268214 54.91638949 -0.12363609 53.16351773 -0.11352539 48.81591797 C-0.11344986 47.73494843 -0.11337433 46.65397888 -0.11329651 45.54025269 C-0.10813522 44.36939117 -0.10297394 43.19852966 -0.09765625 41.9921875 C-0.0962413 40.79643097 -0.09482635 39.60067444 -0.09336853 38.36868286 C-0.08775663 34.53743013 -0.07520208 30.70623516 -0.0625 26.875 C-0.05748653 24.28255293 -0.05292336 21.69010494 -0.04882812 19.09765625 C-0.03778333 12.73174847 -0.02051068 6.36588404 0 0 Z " fill="#F0C233" transform="translate(14,328)"/>
<path d="M0 0 C4.71391399 -0.074557 9.42747929 -0.12879273 14.1418457 -0.16479492 C15.74314356 -0.17981466 17.34440075 -0.20023663 18.94555664 -0.22631836 C21.25677571 -0.26300438 23.56744756 -0.27979435 25.87890625 -0.29296875 C26.58648575 -0.30845261 27.29406525 -0.32393646 28.02308655 -0.33988953 C33.16295073 -0.34160181 36.53605452 0.62767235 41 3 C44.47077346 7.38413489 46.13500961 10.88356848 46.09765625 16.44921875 C46.09515869 17.21322998 46.09266113 17.97724121 46.09008789 18.7644043 C46.08098389 19.72902588 46.07187988 20.69364746 46.0625 21.6875 C46.041875 24.760625 46.02125 27.83375 46 31 C55.9 30.505 55.9 30.505 66 30 C66.33 20.1 66.66 10.2 67 0 C71.62 0 76.24 0 81 0 C81.07453636 4.85633035 81.12878329 9.71232268 81.16479492 14.5690918 C81.17981806 16.21889044 81.2002426 17.86864958 81.22631836 19.51831055 C81.26298899 21.89902536 81.27979103 24.27920908 81.29296875 26.66015625 C81.30845261 27.38960953 81.32393646 28.11906281 81.33988953 28.87062073 C81.34153457 33.95398029 80.56540344 37.56212084 78 42 C74.13243171 44.07054584 70.80461682 44.24390142 66.46557617 44.22705078 C64.51411934 44.22682419 64.51411934 44.22682419 62.52323914 44.22659302 C61.11314743 44.21638124 59.70305731 44.20594927 58.29296875 44.1953125 C56.84280086 44.19157959 55.39263043 44.18873393 53.94245911 44.18673706 C50.13661666 44.17912249 46.3309283 44.15949289 42.52514648 44.1373291 C38.63722823 44.11682363 34.74928494 44.10772531 30.86132812 44.09765625 C23.24081538 44.07624478 15.62042933 44.04213534 8 44 C8 47.3 8 50.6 8 54 C23.84 54 39.68 54 56 54 C56 58.29 56 62.58 56 67 C48.11632957 67.09887388 40.23302005 67.17147304 32.34887695 67.21972656 C29.66672177 67.23758325 26.9849454 67.26541436 24.30297852 67.30175781 C20.44796934 67.35027542 16.59354002 67.37296994 12.73828125 67.390625 C11.53915604 67.41127014 10.34003082 67.43191528 9.10456848 67.45318604 C0.80171364 67.45542419 0.80171364 67.45542419 -3.23364258 65.16308594 C-7.03723429 60.50519754 -6.29355579 54.91450911 -6.375 49.1875 C-6.41238281 48.20201172 -6.44976562 47.21652344 -6.48828125 46.20117188 C-6.58698258 38.03637891 -6.58698258 38.03637891 -3.6015625 34.36328125 C0.37335264 30.75243492 3.04518675 30.86379997 8.1953125 30.90234375 C8.90275604 30.9037587 9.61019958 30.90517365 10.33908081 30.90663147 C12.60109669 30.912234 14.86301398 30.92478682 17.125 30.9375 C18.65755065 30.94251468 20.19010286 30.94707764 21.72265625 30.95117188 C25.48180888 30.96220423 29.24088772 30.97947048 33 31 C32.91320858 28.53991222 32.80639045 26.08356483 32.6875 23.625 C32.65366211 22.57699219 32.65366211 22.57699219 32.61914062 21.5078125 C32.53015704 19.22711059 32.53015704 19.22711059 32 16 C28.41577704 13.61051803 26.62767404 13.69766832 22.36328125 13.5859375 C21.06455078 13.54726563 19.76582031 13.50859375 18.42773438 13.46875 C17.05599427 13.43729483 15.68424939 13.40604749 14.3125 13.375 C12.92901215 13.33680803 11.54554777 13.29775558 10.16210938 13.2578125 C6.77496528 13.16339733 3.38750089 13.08060428 0 13 C0 8.71 0 4.42 0 0 Z " fill="#F0C334" transform="translate(19,254)"/>
<path d="M0 0 C4.62 0 9.24 0 14 0 C14 22.11 14 44.22 14 67 C9.38 67 4.76 67 0 67 C0 44.89 0 22.78 0 0 Z " fill="#F0C230" transform="translate(269,305)"/>
<path d="M0 0 C6.06890175 -0.07408977 12.13754097 -0.12857359 18.20678711 -0.16479492 C20.27193791 -0.17989271 22.3370566 -0.20037274 24.40209961 -0.22631836 C27.36840739 -0.26265795 30.33429171 -0.2797163 33.30078125 -0.29296875 C34.2258699 -0.30845261 35.15095856 -0.32393646 36.1040802 -0.33988953 C36.96474594 -0.34011612 37.82541168 -0.34034271 38.7121582 -0.34057617 C39.46938675 -0.34723801 40.2266153 -0.35389984 41.00679016 -0.36076355 C43 0 43 0 46 3 C46 7.95 46 12.9 46 18 C30.82 18 15.64 18 0 18 C0 12.06 0 6.12 0 0 Z " fill="#FEFEFC" transform="translate(147,267)"/>
<path d="M0 0 C0.73734375 -0.01224609 1.4746875 -0.02449219 2.234375 -0.03710938 C4.15770058 -0.04237395 6.08054263 0.06546553 8 0.1875 C10 2.1875 10 2.1875 10.1953125 5.6640625 C10.18201493 7.04700968 10.15816232 8.42988654 10.125 9.8125 C10.11597656 10.51890625 10.10695312 11.2253125 10.09765625 11.953125 C10.07407603 13.69806098 10.03820461 15.44282295 10 17.1875 C6.70322112 18.83588944 3.05683956 18.33022738 -0.5625 18.3125 C-1.35591797 18.31636719 -2.14933594 18.32023437 -2.96679688 18.32421875 C-8.87336933 18.31413067 -8.87336933 18.31413067 -10 17.1875 C-10.07319621 14.49095146 -10.09242537 11.82058542 -10.0625 9.125 C-10.05798828 8.36638672 -10.05347656 7.60777344 -10.04882812 6.82617188 C-10.0370068 4.94658129 -10.01907078 3.06703101 -10 1.1875 C-6.84044583 -0.39227708 -3.46536183 0.00302916 0 0 Z " fill="#FEFDFB" transform="translate(210,340.8125)"/>
<path d="M0 0 C4.62 0 9.24 0 14 0 C14 4.62 14 9.24 14 14 C9.38 14 4.76 14 0 14 C0 9.38 0 4.76 0 0 Z " fill="#F0C230" transform="translate(81,308)"/>
<path d="M0 0 C4.62 0 9.24 0 14 0 C14 4.62 14 9.24 14 14 C9.38 14 4.76 14 0 14 C0 9.38 0 4.76 0 0 Z " fill="#F0C230" transform="translate(269,235)"/>
<path d="M0 0 C4.62 0 9.24 0 14 0 C14 4.62 14 9.24 14 14 C9.38 14 4.76 14 0 14 C0 9.38 0 4.76 0 0 Z " fill="#F0C230" transform="translate(244,235)"/>
<path d="M0 0 C4.62 0 9.24 0 14 0 C14 4.62 14 9.24 14 14 C9.38 14 4.76 14 0 14 C0 9.38 0 4.76 0 0 Z " fill="#F0C230" transform="translate(218,235)"/>
<path d="M0 0 C4.62 0 9.24 0 14 0 C14 4.62 14 9.24 14 14 C9.38 14 4.76 14 0 14 C0 9.38 0 4.76 0 0 Z " fill="#F0C230" transform="translate(86,235)"/>
<path d="M0 0 C4.62 0 9.24 0 14 0 C14 4.29 14 8.58 14 13 C9.38 13 4.76 13 0 13 C0 8.71 0 4.42 0 0 Z " fill="#F0C230" transform="translate(213,309)"/>
<path d="M0 0 C4.62 0 9.24 0 14 0 C14 4.29 14 8.58 14 13 C9.38 13 4.76 13 0 13 C0 8.71 0 4.42 0 0 Z " fill="#F0C230" transform="translate(193,309)"/>
</svg>
