<?xml version="1.0" standalone="no"?>
<!DOCTYPE svg PUBLIC "-//W3C//DTD SVG 20010904//EN"
        "http://www.w3.org/TR/2001/REC-SVG-20010904/DTD/svg10.dtd">
<svg version="1.0" xmlns="http://www.w3.org/2000/svg"
     width="185.000000pt" height="214.000000pt" viewBox="0 0 185.000000 214.000000"
     preserveAspectRatio="xMidYMid meet">

    <g transform="translate(0.000000,214.000000) scale(0.100000,-0.100000)"
       fill="#f0c230" stroke="none">
        <path d="M854 1876 c-127 -41 -201 -186 -159 -311 9 -27 28 -65 41 -82 54 -71
169 -109 260 -84 174 47 237 278 111 409 -66 69 -168 96 -253 68z"/>
        <path d="M340 1264 c-70 -25 -148 -82 -191 -139 -164 -218 -131 -559 85 -885
l67 -100 634 0 635 0 50 67 c65 89 143 247 175 359 87 299 -2 573 -220 680
-54 26 -70 29 -160 29 -96 0 -104 -2 -177 -37 -104 -52 -191 -144 -250 -267
-23 -49 -45 -90 -48 -90 -3 -1 -27 42 -54 95 -62 122 -149 214 -251 264 -61
30 -81 34 -160 37 -65 2 -103 -1 -135 -13z"/>
    </g>
</svg>
